<svg xmlns="http://www.w3.org/2000/svg" version="1.1" viewBox="0.550000011920929 0.27986112236976624 187.45811462402344 188.54222106933594" width="189.00" height="190.00">
<path fill="#333333" d="&#10;  M 1.38 50.76&#10;  A 0.72 0.70 12.5 0 1 0.96 50.12&#10;  Q 0.91 43.42 0.95 16.11&#10;  Q 0.96 11.99 2.13 9.67&#10;  Q 4.90 4.18 10.30 1.39&#10;  Q 12.44 0.28 16.61 0.30&#10;  Q 86.80 0.66 173.00 0.28&#10;  Q 175.33 0.27 176.80 0.98&#10;  Q 187.65 6.18 187.94 18.51&#10;  Q 188.13 26.38 187.79 27.74&#10;  Q 186.91 31.22 183.45 29.82&#10;  Q 169.20 24.04 158.09 21.51&#10;  C 142.21 17.89 126.98 18.01 109.26 18.75&#10;  Q 86.96 19.69 63.22 26.02&#10;  Q 44.11 31.11 28.93 38.29&#10;  C 21.85 41.63 11.43 48.15 5.63 50.84&#10;  Q 3.61 51.78 1.38 50.76&#10;  Z"/>
<path fill="#333333" d="&#10;  M 125.41 63.10&#10;  Q 134.00 53.60 145.43 41.18&#10;  C 148.12 38.26 152.21 35.92 156.30 36.49&#10;  C 167.23 38.01 174.35 48.07 170.20 58.56&#10;  Q 168.91 61.83 163.68 67.61&#10;  Q 159.28 72.48 156.11 75.68&#10;  A 1.80 1.80 0.0 0 0 156.11 78.21&#10;  Q 167.37 89.57 177.93 99.66&#10;  Q 183.87 105.34 185.22 108.88&#10;  Q 188.34 117.06 182.49 124.73&#10;  Q 178.84 129.53 171.46 129.76&#10;  Q 164.48 129.98 159.51 125.24&#10;  Q 146.92 113.25 135.55 101.48&#10;  Q 133.86 99.74 132.28 101.26&#10;  Q 131.12 102.38 131.59 105.24&#10;  Q 134.12 120.49 134.18 120.97&#10;  Q 135.60 131.15 127.88 136.84&#10;  C 123.37 140.17 117.03 140.45 112.11 137.62&#10;  Q 105.43 133.79 104.04 125.70&#10;  Q 97.79 89.54 93.03 64.72&#10;  Q 90.89 53.59 98.49 47.65&#10;  C 102.50 44.51 106.91 43.82 111.70 44.97&#10;  C 116.99 46.23 120.97 51.20 122.45 56.22&#10;  Q 122.84 57.56 124.01 62.73&#10;  A 0.82 0.81 -30.1 0 0 125.41 63.10&#10;  Z"/>
<path fill="#333333" d="&#10;  M 96.06 103.19&#10;  A 47.42 47.42 0.0 0 1 48.64 150.61&#10;  A 47.42 47.42 0.0 0 1 1.22 103.19&#10;  A 47.42 47.42 0.0 0 1 48.64 55.77&#10;  A 47.42 47.42 0.0 0 1 96.06 103.19&#10;  Z&#10;  M 69.85 103.05&#10;  A 21.12 21.12 0.0 0 0 48.73 81.93&#10;  A 21.12 21.12 0.0 0 0 27.61 103.05&#10;  A 21.12 21.12 0.0 0 0 48.73 124.17&#10;  A 21.12 21.12 0.0 0 0 69.85 103.05&#10;  Z"/>
<ellipse fill="#333333" cx="0.00" cy="0.00" transform="translate(0.64,63.24) rotate(88.7)" rx="0.48" ry="0.06"/>
<ellipse fill="#333333" cx="0.00" cy="0.00" transform="translate(0.73,72.42) rotate(90.0)" rx="8.30" ry="0.18"/>
<path fill="#333333" d="&#10;  M 1.99 178.61&#10;  Q 0.97 176.55 0.96 175.75&#10;  Q 0.91 172.67 0.94 159.46&#10;  Q 0.94 157.94 2.37 158.46&#10;  Q 8.79 160.76 16.60 163.44&#10;  Q 33.86 169.36 51.50 170.27&#10;  Q 95.95 172.57 137.39 158.88&#10;  Q 160.28 151.32 179.78 139.02&#10;  C 181.08 138.20 182.57 137.75 183.82 137.49&#10;  A 2.64 2.63 -16.8 0 1 186.79 139.08&#10;  Q 187.75 141.46 187.81 144.27&#10;  Q 188.05 155.50 187.91 167.00&#10;  Q 187.84 172.59 186.50 176.34&#10;  Q 183.65 184.30 176.91 187.18&#10;  Q 173.53 188.62 164.47 188.61&#10;  Q 85.61 188.48 23.47 188.82&#10;  Q 14.28 188.87 11.41 187.72&#10;  Q 5.29 185.27 1.99 178.61&#10;  Z"/>
</svg>