<svg xmlns="http://www.w3.org/2000/svg" version="1.1" viewBox="1.417391300201416 1.059999942779541 185.78790283203125 245.12548828125" width="188.00" height="248.00">
<path fill="#333333" d="&#10;  M 149.53 21.27&#10;  Q 133.21 19.08 118.10 19.67&#10;  Q 112.19 19.90 104.86 20.35&#10;  Q 98.34 20.76 91.70 21.66&#10;  Q 67.43 24.97 44.73 33.23&#10;  Q 30.91 38.26 20.51 44.29&#10;  Q 16.25 46.75 7.38 51.62&#10;  Q 5.51 52.65 3.82 52.13&#10;  C 1.55 51.44 1.50 48.40 1.48 46.25&#10;  Q 1.36 33.52 1.47 20.78&#10;  Q 1.51 15.83 2.33 13.80&#10;  Q 3.61 10.61 5.80 7.54&#10;  C 8.27 4.10 12.49 2.51 16.15 1.68&#10;  Q 18.69 1.10 23.39 1.10&#10;  Q 92.55 1.08 161.72 1.06&#10;  Q 171.55 1.06 175.07 2.24&#10;  Q 182.30 4.69 185.54 11.97&#10;  C 187.69 16.80 187.25 22.46 186.96 28.72&#10;  Q 186.90 30.11 185.92 30.89&#10;  C 184.00 32.43 181.14 30.21 179.36 29.56&#10;  Q 161.08 22.81 149.53 21.27&#10;  Z"/>
<path fill="#333333" d="&#10;  M 125.46 63.86&#10;  C 127.81 61.46 130.96 57.28 133.72 54.55&#10;  Q 137.90 50.41 141.72 45.93&#10;  Q 146.25 40.62 149.20 39.03&#10;  C 155.78 35.50 163.97 38.85 168.12 44.83&#10;  Q 172.11 50.56 170.32 57.71&#10;  Q 169.45 61.19 165.56 65.68&#10;  Q 159.92 72.19 155.28 76.76&#10;  A 1.15 1.14 45.5 0 0 155.27 78.38&#10;  Q 163.64 86.82 178.13 100.88&#10;  C 181.05 103.73 183.87 106.52 184.90 110.28&#10;  Q 186.40 115.72 184.51 120.28&#10;  Q 180.32 130.42 169.13 129.82&#10;  Q 163.52 129.51 159.41 125.63&#10;  Q 147.58 114.45 134.78 101.26&#10;  A 1.58 1.58 0.0 0 0 132.45 101.32&#10;  C 131.31 102.63 130.98 103.84 131.31 105.67&#10;  Q 132.37 111.63 134.04 120.64&#10;  Q 134.45 122.81 134.27 124.80&#10;  C 133.85 129.62 132.70 132.77 128.76 135.99&#10;  Q 123.52 140.27 117.27 139.34&#10;  Q 110.03 138.26 106.37 131.88&#10;  Q 105.20 129.83 104.05 124.97&#10;  Q 103.97 124.65 100.08 102.05&#10;  Q 98.10 90.56 96.53 82.59&#10;  Q 94.35 71.48 92.94 63.09&#10;  C 92.23 58.86 93.30 54.66 96.08 51.30&#10;  Q 102.12 43.99 111.43 45.91&#10;  Q 115.16 46.69 117.84 49.37&#10;  C 120.47 52.02 122.44 55.60 123.07 59.56&#10;  Q 123.41 61.71 123.94 63.49&#10;  A 0.91 0.91 0.0 0 0 125.46 63.86&#10;  Z"/>
<path fill="#333333" d="&#10;  M 96.50 103.54&#10;  A 46.97 46.97 0.0 0 1 49.53 150.51&#10;  A 46.97 46.97 0.0 0 1 2.56 103.54&#10;  A 46.97 46.97 0.0 0 1 49.53 56.57&#10;  A 46.97 46.97 0.0 0 1 96.50 103.54&#10;  Z&#10;  M 70.54 103.44&#10;  A 21.00 21.00 0.0 0 0 49.54 82.44&#10;  A 21.00 21.00 0.0 0 0 28.54 103.44&#10;  A 21.00 21.00 0.0 0 0 49.54 124.44&#10;  A 21.00 21.00 0.0 0 0 70.54 103.44&#10;  Z"/>
<path fill="#333333" d="&#10;  M 34.72 167.80&#10;  Q 47.75 170.15 62.76 170.25&#10;  Q 106.78 170.53 146.58 155.25&#10;  Q 158.13 150.82 172.06 143.26&#10;  Q 173.17 142.66 178.99 139.01&#10;  Q 181.17 137.64 183.51 137.50&#10;  A 2.69 2.69 0.0 0 1 186.14 139.13&#10;  Q 186.86 140.85 186.91 144.00&#10;  Q 187.27 166.05 186.81 171.03&#10;  Q 186.05 179.41 179.99 184.24&#10;  Q 176.45 187.06 172.00 187.77&#10;  Q 170.63 187.99 163.48 187.98&#10;  Q 90.77 187.83 20.82 188.16&#10;  C 14.42 188.19 11.18 187.27 6.94 183.19&#10;  Q 1.63 178.07 1.47 170.04&#10;  Q 1.32 162.88 1.67 159.99&#10;  Q 1.96 157.55 4.65 158.56&#10;  Q 24.25 165.91 34.72 167.80&#10;  Z"/>
<rect fill="#333333" x="-3.84" y="-22.06" transform="translate(57.87,223.65) rotate(0.2)" width="7.68" height="44.12" rx="3.58"/>
<rect fill="#333333" x="-3.89" y="-21.97" transform="translate(41.84,223.68) rotate(-0.2)" width="7.78" height="43.94" rx="3.41"/>
<path fill="#333333" d="&#10;  M 116.39 242.92&#10;  C 114.61 244.53 113.68 245.45 111.57 245.81&#10;  C 107.01 246.60 99.87 244.75 98.66 239.38&#10;  C 96.02 227.65 108.36 228.08 115.60 227.66&#10;  Q 118.09 227.51 117.72 225.06&#10;  C 116.52 217.18 106.39 220.79 101.93 222.63&#10;  A 1.38 1.37 59.4 0 1 100.32 222.21&#10;  C 98.89 220.39 99.19 218.03 101.47 216.96&#10;  C 105.08 215.27 107.14 215.09 112.03 214.33&#10;  Q 113.81 214.05 118.19 215.55&#10;  C 122.74 217.11 124.35 220.38 124.80 225.22&#10;  Q 125.37 231.24 125.04 240.74&#10;  C 124.96 242.90 125.29 244.90 122.64 245.44&#10;  C 120.12 245.96 118.91 245.68 117.98 243.30&#10;  Q 117.45 241.96 116.39 242.92&#10;  Z&#10;  M 116.41 231.85&#10;  C 113.79 231.51 110.17 231.98 107.98 232.50&#10;  C 105.25 233.16 105.21 236.74 106.30 238.57&#10;  Q 107.06 239.85 109.17 240.36&#10;  C 113.95 241.52 117.16 237.92 117.59 233.33&#10;  A 1.37 1.36 -83.7 0 0 116.41 231.85&#10;  Z"/>
<path fill="#333333" d="&#10;  M 163.48 231.85&#10;  A 0.60 0.60 0.0 0 0 162.88 232.52&#10;  Q 163.76 240.22 171.13 240.13&#10;  Q 173.15 240.10 175.79 239.24&#10;  Q 178.88 238.24 180.17 237.81&#10;  Q 182.88 236.90 183.09 239.73&#10;  L 183.11 240.09&#10;  A 4.77 3.57 -17.0 0 1 180.23 244.03&#10;  C 167.17 249.88 153.44 243.62 155.31 227.71&#10;  Q 155.96 222.19 159.16 218.86&#10;  C 163.02 214.84 169.61 213.26 174.96 215.26&#10;  Q 184.02 218.64 183.34 229.73&#10;  A 2.26 2.25 -88.2 0 1 181.09 231.85&#10;  L 163.48 231.85&#10;  Z&#10;  M 164.00 227.45&#10;  L 175.66 227.41&#10;  A 0.95 0.95 0.0 0 0 176.61 226.46&#10;  L 176.61 226.28&#10;  A 6.58 6.45 -0.2 0 0 170.01 219.85&#10;  L 169.61 219.85&#10;  A 6.58 6.45 -0.2 0 0 163.05 226.32&#10;  L 163.05 226.50&#10;  A 0.95 0.95 0.0 0 0 164.00 227.45&#10;  Z"/>
<path fill="#333333" d="&#10;  M 22.57 242.98&#10;  A 0.70 0.70 0.0 0 0 21.48 242.78&#10;  C 17.42 246.50 11.73 247.18 7.26 244.30&#10;  Q 2.02 240.92 3.34 233.91&#10;  Q 3.63 232.37 5.42 230.92&#10;  C 9.29 227.78 13.41 228.09 19.72 227.67&#10;  Q 22.91 227.47 22.01 224.39&#10;  L 21.70 223.31&#10;  Q 20.72 219.95 17.24 220.23&#10;  Q 11.12 220.73 7.03 222.44&#10;  Q 4.77 223.38 4.21 221.22&#10;  C 3.78 219.54 4.45 218.30 5.91 217.43&#10;  Q 14.60 212.26 23.89 215.86&#10;  Q 28.88 217.79 29.35 224.43&#10;  Q 30.00 233.50 29.39 242.06&#10;  Q 29.25 244.03 28.41 244.95&#10;  C 27.10 246.40 24.76 246.27 23.59 244.60&#10;  Q 22.82 243.49 22.57 242.98&#10;  Z&#10;  M 21.10 232.00&#10;  C 18.55 231.67 15.03 232.12 12.90 232.62&#10;  C 10.25 233.26 10.20 236.74 11.26 238.52&#10;  Q 11.99 239.76 14.04 240.26&#10;  C 18.69 241.40 21.81 237.90 22.24 233.44&#10;  A 1.33 1.32 -83.6 0 0 21.10 232.00&#10;  Z"/>
<path fill="#333333" d="&#10;  M 74.81 230.31&#10;  C 74.82 235.94 77.29 240.41 83.47 240.17&#10;  C 85.74 240.08 87.57 239.00 90.13 237.90&#10;  Q 92.61 236.84 93.25 239.50&#10;  Q 93.27 239.55 93.33 239.85&#10;  Q 93.92 242.48 91.50 243.67&#10;  Q 85.23 246.75 78.97 245.69&#10;  Q 75.28 245.06 72.83 243.15&#10;  C 68.64 239.88 67.19 235.80 67.17 230.32&#10;  C 67.16 224.85 68.60 220.76 72.77 217.47&#10;  Q 75.21 215.55 78.90 214.90&#10;  Q 85.15 213.81 91.44 216.87&#10;  Q 93.86 218.04 93.29 220.68&#10;  Q 93.23 220.98 93.21 221.03&#10;  Q 92.58 223.69 90.09 222.64&#10;  C 87.53 221.55 85.69 220.48 83.42 220.41&#10;  C 77.24 220.19 74.79 224.67 74.81 230.31&#10;  Z"/>
<path fill="#333333" d="&#10;  M 140.65 218.73&#10;  A 0.57 0.56 -34.5 0 0 141.64 218.91&#10;  Q 144.63 214.97 150.46 214.55&#10;  A 2.74 2.72 -3.6 0 1 153.39 217.11&#10;  L 153.43 217.76&#10;  Q 153.57 220.36 151.01 220.67&#10;  Q 141.17 221.85 141.12 228.36&#10;  Q 141.05 237.60 140.82 242.21&#10;  Q 140.65 245.52 137.14 245.80&#10;  Q 137.10 245.80 137.00 245.81&#10;  Q 133.59 246.06 133.40 242.44&#10;  Q 132.85 231.78 133.23 220.26&#10;  Q 133.29 218.35 133.62 217.13&#10;  C 134.35 214.40 137.72 214.10 139.60 215.77&#10;  A 1.28 1.28 0.0 0 1 139.96 216.35&#10;  L 140.65 218.73&#10;  Z"/>
</svg>