<svg xmlns="http://www.w3.org/2000/svg" version="1.1" viewBox="1.5216306447982788 1.4200000762939453 285.903564453125 275.79376220703125" width="289.00" height="278.00">
<g stroke-width="2.00" fill="none" stroke-linecap="butt">
<path stroke="#f31260" vector-effect="non-scaling-stroke" d="&#10;  M 265.78 273.93&#10;  L 264.70 273.84&#10;  Q 264.21 273.80 264.10 273.32&#10;  Q 264.07 273.19 264.08 273.06&#10;  Q 264.11 272.54 264.61 272.39&#10;  Q 269.43 270.98 273.80 268.81&#10;  C 277.52 266.96 279.79 263.05 281.80 259.91&#10;  C 283.18 257.77 283.48 256.06 283.76 253.55&#10;  Q 284.79 244.26 285.09 237.44&#10;  Q 285.19 235.14 284.56 220.55&#10;  Q 284.39 216.46 284.79 213.51&#10;  C 285.27 209.93 285.69 204.27 283.32 201.51&#10;  A 1.14 1.14 0.0 0 0 282.46 201.12&#10;  C 280.52 201.13 279.21 200.87 277.81 201.62&#10;  Q 275.61 202.81 273.28 203.72&#10;  Q 271.93 204.24 268.94 206.16&#10;  Q 265.90 208.10 260.72 211.26&#10;  Q 258.98 212.32 257.80 212.73&#10;  Q 256.29 213.26 254.97 214.29&#10;  Q 253.76 215.23 250.52 216.54&#10;  C 248.47 217.37 246.36 218.71 245.08 219.45&#10;  Q 243.55 220.34 240.89 221.35&#10;  Q 238.46 222.27 237.47 222.94&#10;  Q 236.01 223.93 234.02 224.28&#10;  C 231.65 224.70 229.10 226.53 226.40 227.24&#10;  Q 223.10 228.10 222.19 228.73&#10;  Q 217.93 231.66 212.05 232.79&#10;  Q 208.78 233.42 207.10 234.25&#10;  Q 201.84 236.85 196.86 237.62&#10;  Q 193.11 238.20 189.05 239.56&#10;  Q 182.81 241.65 178.85 242.09&#10;  C 174.45 242.59 170.01 244.27 165.96 244.76&#10;  Q 161.40 245.32 156.31 246.67&#10;  Q 153.52 247.42 146.92 247.83&#10;  Q 145.24 247.93 143.63 248.32&#10;  C 140.43 249.10 138.38 249.68 135.46 249.63&#10;  Q 130.96 249.55 125.59 250.16&#10;  Q 119.37 250.86 115.74 250.93&#10;  Q 97.92 251.28 87.66 250.98&#10;  Q 85.31 250.91 82.46 250.39&#10;  Q 79.53 249.85 77.21 249.86&#10;  Q 73.00 249.88 69.37 249.39&#10;  Q 60.95 248.25 53.13 247.07&#10;  Q 52.54 246.98 50.85 246.46&#10;  Q 49.45 246.03 48.50 246.13&#10;  A 1.36 1.34 59.0 0 1 47.60 245.90&#10;  Q 46.85 245.38 46.18 245.24&#10;  Q 42.28 244.40 38.84 243.85&#10;  Q 34.81 243.22 31.77 241.81&#10;  Q 28.17 240.15 22.33 238.82&#10;  Q 18.89 238.05 15.65 236.47&#10;  C 11.89 234.63 4.26 230.01 4.02 236.40&#10;  Q 3.84 241.18 3.68 242.50&#10;  Q 3.28 245.66 3.74 248.55&#10;  Q 5.21 257.94 5.86 259.26&#10;  Q 9.68 267.07 17.20 271.62&#10;  Q 19.52 273.02 22.19 273.28&#10;  Q 24.07 273.47 27.38 274.31&#10;  Q 30.12 275.01 35.25 274.90&#10;  Q 43.01 274.74 45.50 274.96&#10;  Q 49.31 275.29 55.49 274.87&#10;  Q 55.75 274.85 65.50 275.07&#10;  Q 66.22 275.09 86.86 274.53&#10;  Q 89.63 274.46 95.13 274.61&#10;  Q 99.70 274.73 103.45 274.46&#10;  C 107.87 274.14 112.94 274.79 117.85 274.38&#10;  Q 123.55 273.91 128.28 274.27&#10;  C 134.26 274.71 139.74 273.08 145.63 273.92&#10;  Q 148.02 274.26 150.42 273.89&#10;  Q 151.07 273.79 155.64 273.49&#10;  Q 158.49 273.30 160.85 273.63&#10;  Q 164.44 274.14 167.74 273.60&#10;  C 170.68 273.12 173.38 273.42 176.88 273.69&#10;  C 182.30 274.10 188.65 273.29 193.12 273.71&#10;  Q 196.62 274.04 201.96 273.68&#10;  Q 205.46 273.45 210.84 273.89&#10;  Q 212.73 274.05 217.63 273.73&#10;  Q 223.36 273.37 228.64 275.23" data-c-stroke="504f50"/>
<path stroke="#f31260" vector-effect="non-scaling-stroke" d="&#10;  M 106.71 35.64&#10;  Q 111.19 35.12 118.56 33.14&#10;  C 121.23 32.43 124.73 32.63 126.94 32.00&#10;  Q 132.18 30.51 134.26 30.30&#10;  Q 142.82 29.46 150.04 28.28&#10;  Q 153.44 27.72 156.63 27.87&#10;  Q 161.12 28.06 163.26 27.55&#10;  Q 166.91 26.67 170.82 26.82&#10;  Q 176.00 27.02 183.41 26.70&#10;  Q 186.32 26.57 189.58 26.76&#10;  Q 194.25 27.04 195.75 26.96&#10;  Q 199.83 26.76 204.74 27.09&#10;  Q 212.24 27.61 212.29 27.61&#10;  Q 225.36 28.09 239.53 30.85&#10;  Q 240.74 31.09 242.51 31.85&#10;  Q 244.29 32.62 245.52 32.81&#10;  Q 253.75 34.09 255.79 35.03&#10;  Q 260.72 37.30 268.17 39.18&#10;  Q 273.61 40.55 278.22 43.37&#10;  Q 279.17 43.95 280.91 44.30&#10;  A 1.57 1.56 -87.0 0 0 282.77 42.62&#10;  Q 282.47 39.41 282.97 34.97&#10;  Q 283.61 29.45 283.40 27.65&#10;  Q 283.00 24.23 281.62 20.09&#10;  Q 278.01 9.30 268.29 5.85&#10;  Q 266.03 5.05 263.59 4.72&#10;  Q 261.11 4.38 258.86 3.62&#10;  Q 257.18 3.06 253.63 3.38&#10;  Q 248.24 3.86 242.69 3.34&#10;  C 240.02 3.09 237.84 3.35 234.91 3.51&#10;  Q 232.69 3.63 229.11 3.33&#10;  Q 224.30 2.92 221.11 3.22&#10;  Q 216.23 3.69 213.07 3.42&#10;  Q 207.13 2.90 203.30 3.36&#10;  Q 199.42 3.83 194.32 3.41&#10;  Q 191.06 3.14 185.26 3.52&#10;  C 180.45 3.84 175.69 3.05 171.25 3.39&#10;  Q 166.91 3.73 162.57 3.41&#10;  Q 158.94 3.14 153.93 3.45&#10;  Q 148.26 3.80 142.58 3.44&#10;  C 139.77 3.25 135.87 3.94 133.25 3.74&#10;  Q 125.98 3.19 119.58 3.57&#10;  C 114.72 3.85 109.91 3.09 105.17 3.42&#10;  Q 100.79 3.72 96.39 3.43&#10;  C 91.40 3.10 84.29 3.84 78.92 3.47&#10;  Q 75.37 3.23 71.60 3.55&#10;  Q 69.27 3.75 64.25 3.63&#10;  Q 56.07 3.42 53.26 3.58&#10;  Q 49.06 3.83 44.76 3.64&#10;  C 40.77 3.47 35.94 3.91 31.47 4.18&#10;  Q 24.85 4.59 21.70 5.85&#10;  Q 19.49 6.74 14.76 8.94&#10;  Q 12.34 10.06 10.61 12.57&#10;  Q 9.57 14.07 7.14 17.61&#10;  Q 5.21 20.42 4.52 24.03&#10;  Q 3.31 30.35 3.45 35.25&#10;  Q 3.64 41.74 3.72 44.82&#10;  Q 3.92 52.80 3.78 72.00&#10;  Q 3.77 73.47 4.90 76.03&#10;  A 1.05 1.05 0.0 0 0 5.62 76.63&#10;  Q 7.55 77.09 9.62 76.09&#10;  Q 19.10 71.55 24.49 67.69&#10;  Q 25.89 66.69 29.43 64.98&#10;  Q 32.77 63.37 34.33 62.12&#10;  Q 34.69 61.83 37.94 60.29&#10;  Q 44.16 57.33 50.98 53.95&#10;  Q 55.03 51.94 58.12 50.99&#10;  Q 62.00 49.80 65.33 48.11&#10;  Q 68.26 46.63 72.80 45.47&#10;  Q 78.80 43.93 80.37 43.14&#10;  Q 85.47 40.56 91.66 39.65&#10;  Q 94.78 39.19 96.02 38.80&#10;  Q 99.53 37.69 100.25 37.35&#10;  Q 103.00 36.06 106.71 35.64" data-c-stroke="504f50"/>
<path stroke="#f31260" vector-effect="non-scaling-stroke" d="&#10;  M 110.23 153.51&#10;  Q 109.75 153.41 109.31 153.58" data-c-stroke="6e1115"/>
</g>
<path fill="#f31260" d="&#10;  M 147.22 30.85&#10;  Q 140.45 32.07 137.28 32.42&#10;  Q 133.25 32.85 127.32 33.94&#10;  Q 95.97 39.70 66.24 50.37&#10;  Q 63.78 51.25 58.23 53.68&#10;  C 54.57 55.29 50.76 56.40 47.51 58.13&#10;  Q 44.68 59.63 38.92 62.43&#10;  Q 35.24 64.22 30.47 67.03&#10;  Q 25.91 69.72 10.53 78.79&#10;  Q 8.18 80.17 5.13 78.98&#10;  C 2.46 77.93 1.91 74.27 1.91 71.78&#10;  Q 1.88 40.21 1.55 32.39&#10;  Q 1.17 23.53 5.88 14.54&#10;  Q 9.91 6.85 17.89 4.16&#10;  C 23.02 2.43 27.64 1.72 33.45 1.71&#10;  Q 62.75 1.66 85.33 1.44&#10;  Q 87.06 1.42 105.34 1.45&#10;  Q 217.48 1.58 240.50 1.47&#10;  Q 252.43 1.42 255.75 1.42&#10;  Q 259.06 1.42 268.10 3.71&#10;  C 278.43 6.33 285.21 17.01 285.98 27.00&#10;  Q 286.53 34.18 286.21 39.98&#10;  C 286.04 42.98 285.44 45.84 282.40 46.69&#10;  Q 280.94 47.10 276.83 45.40&#10;  Q 270.50 42.77 268.09 41.96&#10;  Q 248.08 35.27 226.24 31.65&#10;  Q 209.40 28.87 194.03 28.65&#10;  Q 183.58 28.50 172.01 28.88&#10;  Q 165.74 29.09 161.39 29.70&#10;  Q 157.97 30.17 154.31 30.32&#10;  Q 149.02 30.53 147.22 30.85&#10;  Z&#10;  M 106.71 35.64&#10;  Q 111.19 35.12 118.56 33.14&#10;  C 121.23 32.43 124.73 32.63 126.94 32.00&#10;  Q 132.18 30.51 134.26 30.30&#10;  Q 142.82 29.46 150.04 28.28&#10;  Q 153.44 27.72 156.63 27.87&#10;  Q 161.12 28.06 163.26 27.55&#10;  Q 166.91 26.67 170.82 26.82&#10;  Q 176.00 27.02 183.41 26.70&#10;  Q 186.32 26.57 189.58 26.76&#10;  Q 194.25 27.04 195.75 26.96&#10;  Q 199.83 26.76 204.74 27.09&#10;  Q 212.24 27.61 212.29 27.61&#10;  Q 225.36 28.09 239.53 30.85&#10;  Q 240.74 31.09 242.51 31.85&#10;  Q 244.29 32.62 245.52 32.81&#10;  Q 253.75 34.09 255.79 35.03&#10;  Q 260.72 37.30 268.17 39.18&#10;  Q 273.61 40.55 278.22 43.37&#10;  Q 279.17 43.95 280.91 44.30&#10;  A 1.57 1.56 -87.0 0 0 282.77 42.62&#10;  Q 282.47 39.41 282.97 34.97&#10;  Q 283.61 29.45 283.40 27.65&#10;  Q 283.00 24.23 281.62 20.09&#10;  Q 278.01 9.30 268.29 5.85&#10;  Q 266.03 5.05 263.59 4.72&#10;  Q 261.11 4.38 258.86 3.62&#10;  Q 257.18 3.06 253.63 3.38&#10;  Q 248.24 3.86 242.69 3.34&#10;  C 240.02 3.09 237.84 3.35 234.91 3.51&#10;  Q 232.69 3.63 229.11 3.33&#10;  Q 224.30 2.92 221.11 3.22&#10;  Q 216.23 3.69 213.07 3.42&#10;  Q 207.13 2.90 203.30 3.36&#10;  Q 199.42 3.83 194.32 3.41&#10;  Q 191.06 3.14 185.26 3.52&#10;  C 180.45 3.84 175.69 3.05 171.25 3.39&#10;  Q 166.91 3.73 162.57 3.41&#10;  Q 158.94 3.14 153.93 3.45&#10;  Q 148.26 3.80 142.58 3.44&#10;  C 139.77 3.25 135.87 3.94 133.25 3.74&#10;  Q 125.98 3.19 119.58 3.57&#10;  C 114.72 3.85 109.91 3.09 105.17 3.42&#10;  Q 100.79 3.72 96.39 3.43&#10;  C 91.40 3.10 84.29 3.84 78.92 3.47&#10;  Q 75.37 3.23 71.60 3.55&#10;  Q 69.27 3.75 64.25 3.63&#10;  Q 56.07 3.42 53.26 3.58&#10;  Q 49.06 3.83 44.76 3.64&#10;  C 40.77 3.47 35.94 3.91 31.47 4.18&#10;  Q 24.85 4.59 21.70 5.85&#10;  Q 19.49 6.74 14.76 8.94&#10;  Q 12.34 10.06 10.61 12.57&#10;  Q 9.57 14.07 7.14 17.61&#10;  Q 5.21 20.42 4.52 24.03&#10;  Q 3.31 30.35 3.45 35.25&#10;  Q 3.64 41.74 3.72 44.82&#10;  Q 3.92 52.80 3.78 72.00&#10;  Q 3.77 73.47 4.90 76.03&#10;  A 1.05 1.05 0.0 0 0 5.62 76.63&#10;  Q 7.55 77.09 9.62 76.09&#10;  Q 19.10 71.55 24.49 67.69&#10;  Q 25.89 66.69 29.43 64.98&#10;  Q 32.77 63.37 34.33 62.12&#10;  Q 34.69 61.83 37.94 60.29&#10;  Q 44.16 57.33 50.98 53.95&#10;  Q 55.03 51.94 58.12 50.99&#10;  Q 62.00 49.80 65.33 48.11&#10;  Q 68.26 46.63 72.80 45.47&#10;  Q 78.80 43.93 80.37 43.14&#10;  Q 85.47 40.56 91.66 39.65&#10;  Q 94.78 39.19 96.02 38.80&#10;  Q 99.53 37.69 100.25 37.35&#10;  Q 103.00 36.06 106.71 35.64&#10;  Z" data-c-fill="6d6b6d"/>
<path fill="#f31260" d="&#10;  M 100.25 37.35&#10;  Q 99.53 37.69 96.02 38.80&#10;  Q 94.78 39.19 91.66 39.65&#10;  Q 85.47 40.56 80.37 43.14&#10;  Q 78.80 43.93 72.80 45.47&#10;  Q 68.26 46.63 65.33 48.11&#10;  Q 62.00 49.80 58.12 50.99&#10;  Q 55.03 51.94 50.98 53.95&#10;  Q 44.16 57.33 37.94 60.29&#10;  Q 34.69 61.83 34.33 62.12&#10;  Q 32.77 63.37 29.43 64.98&#10;  Q 25.89 66.69 24.49 67.69&#10;  Q 19.10 71.55 9.62 76.09&#10;  Q 7.55 77.09 5.62 76.63&#10;  A 1.05 1.05 0.0 0 1 4.90 76.03&#10;  Q 3.77 73.47 3.78 72.00&#10;  Q 3.92 52.80 3.72 44.82&#10;  Q 3.64 41.74 3.45 35.25&#10;  Q 3.31 30.35 4.52 24.03&#10;  Q 5.21 20.42 7.14 17.61&#10;  Q 9.57 14.07 10.61 12.57&#10;  Q 12.34 10.06 14.76 8.94&#10;  Q 19.49 6.74 21.70 5.85&#10;  Q 24.85 4.59 31.47 4.18&#10;  C 35.94 3.91 40.77 3.47 44.76 3.64&#10;  Q 49.06 3.83 53.26 3.58&#10;  Q 56.07 3.42 64.25 3.63&#10;  Q 69.27 3.75 71.60 3.55&#10;  Q 75.37 3.23 78.92 3.47&#10;  C 84.29 3.84 91.40 3.10 96.39 3.43&#10;  Q 100.79 3.72 105.17 3.42&#10;  C 109.91 3.09 114.72 3.85 119.58 3.57&#10;  Q 125.98 3.19 133.25 3.74&#10;  C 135.87 3.94 139.77 3.25 142.58 3.44&#10;  Q 148.26 3.80 153.93 3.45&#10;  Q 158.94 3.14 162.57 3.41&#10;  Q 166.91 3.73 171.25 3.39&#10;  C 175.69 3.05 180.45 3.84 185.26 3.52&#10;  Q 191.06 3.14 194.32 3.41&#10;  Q 199.42 3.83 203.30 3.36&#10;  Q 207.13 2.90 213.07 3.42&#10;  Q 216.23 3.69 221.11 3.22&#10;  Q 224.30 2.92 229.11 3.33&#10;  Q 232.69 3.63 234.91 3.51&#10;  C 237.84 3.35 240.02 3.09 242.69 3.34&#10;  Q 248.24 3.86 253.63 3.38&#10;  Q 257.18 3.06 258.86 3.62&#10;  Q 261.11 4.38 263.59 4.72&#10;  Q 266.03 5.05 268.29 5.85&#10;  Q 278.01 9.30 281.62 20.09&#10;  Q 283.00 24.23 283.40 27.65&#10;  Q 283.61 29.45 282.97 34.97&#10;  Q 282.47 39.41 282.77 42.62&#10;  A 1.57 1.56 -87.0 0 1 280.91 44.30&#10;  Q 279.17 43.95 278.22 43.37&#10;  Q 273.61 40.55 268.17 39.18&#10;  Q 260.72 37.30 255.79 35.03&#10;  Q 253.75 34.09 245.52 32.81&#10;  Q 244.29 32.62 242.51 31.85&#10;  Q 240.74 31.09 239.53 30.85&#10;  Q 225.36 28.09 212.29 27.61&#10;  Q 212.24 27.61 204.74 27.09&#10;  Q 199.83 26.76 195.75 26.96&#10;  Q 194.25 27.04 189.58 26.76&#10;  Q 186.32 26.57 183.41 26.70&#10;  Q 176.00 27.02 170.82 26.82&#10;  Q 166.91 26.67 163.26 27.55&#10;  Q 161.12 28.06 156.63 27.87&#10;  Q 153.44 27.72 150.04 28.28&#10;  Q 142.82 29.46 134.26 30.30&#10;  Q 132.18 30.51 126.94 32.00&#10;  C 124.73 32.63 121.23 32.43 118.56 33.14&#10;  Q 111.19 35.12 106.71 35.64&#10;  Q 103.00 36.06 100.25 37.35&#10;  Z" data-c-fill="333333"/>
<path fill="#f31260" d="&#10;  M 130.93 120.16&#10;  Q 133.47 122.12 132.75 118.98&#10;  L 120.59 65.97&#10;  A 1.75 1.75 0.0 0 1 122.07 63.84&#10;  Q 133.91 62.27 143.37 70.11&#10;  Q 149.12 74.88 151.02 82.42&#10;  Q 156.92 105.83 160.80 124.36&#10;  Q 161.64 128.34 163.14 132.66&#10;  A 0.84 0.83 -37.9 0 0 164.63 132.84&#10;  Q 179.33 110.64 188.76 96.77&#10;  Q 189.73 95.34 190.69 94.33&#10;  Q 191.64 93.34 193.35 92.93&#10;  Q 204.75 90.24 217.88 87.13&#10;  Q 219.14 86.83 220.13 86.90&#10;  A 0.48 0.48 0.0 0 1 220.50 87.64&#10;  Q 212.14 100.58 193.24 131.48&#10;  Q 187.86 140.29 182.70 148.48&#10;  Q 170.23 168.31 153.89 194.86&#10;  Q 149.56 201.90 146.92 205.08&#10;  C 140.43 212.90 132.87 218.36 122.59 221.10&#10;  C 103.04 226.31 82.76 222.06 69.09 207.00&#10;  Q 66.31 203.92 63.21 199.10&#10;  Q 60.35 194.63 58.74 190.33&#10;  Q 54.09 177.91 53.85 165.28&#10;  Q 53.27 135.28 78.38 120.62&#10;  Q 88.66 114.62 101.10 112.84&#10;  Q 104.51 112.35 112.46 113.25&#10;  Q 123.57 114.51 130.93 120.16&#10;  Z&#10;  M 81.12 174.77&#10;  C 84.69 188.41 95.08 197.98 109.49 198.41&#10;  Q 119.11 198.69 127.02 194.04&#10;  C 139.35 186.77 143.92 173.61 140.27 159.68&#10;  C 136.69 146.04 126.31 136.47 111.89 136.05&#10;  Q 102.27 135.76 94.37 140.42&#10;  C 82.03 147.68 77.46 160.85 81.12 174.77&#10;  Z" data-c-fill="020202"/>
<path fill="#f31260" d="&#10;  M 194.19 147.47&#10;  L 250.23 186.02&#10;  A 1.64 1.54 28.5 0 1 250.85 187.91&#10;  Q 250.76 188.13 249.08 188.90&#10;  Q 249.06 188.91 240.52 190.83&#10;  Q 234.61 192.16 231.92 192.34&#10;  Q 224.04 192.87 216.01 190.21&#10;  Q 210.94 188.53 202.28 182.23&#10;  Q 188.14 171.92 182.22 167.46&#10;  Q 181.14 166.65 181.86 165.51&#10;  L 193.01 147.72&#10;  A 0.84 0.84 0.0 0 1 194.19 147.47&#10;  Z" data-c-fill="424443"/>
<path fill="#f31260" d="&#10;  M 110.23 153.51&#10;  Q 109.75 153.41 109.31 153.58&#10;  A 6.53 2.98 -5.5 0 1 110.23 153.51&#10;  Z" data-c-fill="020202"/>
<path fill="#f31260" d="&#10;  M 109.31 153.58&#10;  Q 109.75 153.41 110.23 153.51&#10;  A 13.77 13.77 0.0 0 1 124.34 164.45&#10;  A 13.74 13.74 0.0 0 1 122.46 174.70&#10;  A 13.78 13.78 0.0 0 1 103.09 178.65&#10;  A 13.78 13.76 -78.8 0 1 97.38 170.11&#10;  A 13.76 13.76 0.0 0 1 105.38 154.63&#10;  A 13.83 13.66 -59.6 0 1 109.31 153.58&#10;  Z" data-c-fill="da2028"/>
<path fill="#f31260" d="&#10;  M 265.78 273.93&#10;  L 264.70 273.84&#10;  Q 264.21 273.80 264.10 273.32&#10;  Q 264.07 273.19 264.08 273.06&#10;  Q 264.11 272.54 264.61 272.39&#10;  Q 269.43 270.98 273.80 268.81&#10;  C 277.52 266.96 279.79 263.05 281.80 259.91&#10;  C 283.18 257.77 283.48 256.06 283.76 253.55&#10;  Q 284.79 244.26 285.09 237.44&#10;  Q 285.19 235.14 284.56 220.55&#10;  Q 284.39 216.46 284.79 213.51&#10;  C 285.27 209.93 285.69 204.27 283.32 201.51&#10;  A 1.14 1.14 0.0 0 0 282.46 201.12&#10;  C 280.52 201.13 279.21 200.87 277.81 201.62&#10;  Q 275.61 202.81 273.28 203.72&#10;  Q 271.93 204.24 268.94 206.16&#10;  Q 265.90 208.10 260.72 211.26&#10;  Q 258.98 212.32 257.80 212.73&#10;  Q 256.29 213.26 254.97 214.29&#10;  Q 253.76 215.23 250.52 216.54&#10;  C 248.47 217.37 246.36 218.71 245.08 219.45&#10;  Q 243.55 220.34 240.89 221.35&#10;  Q 238.46 222.27 237.47 222.94&#10;  Q 236.01 223.93 234.02 224.28&#10;  C 231.65 224.70 229.10 226.53 226.40 227.24&#10;  Q 223.10 228.10 222.19 228.73&#10;  Q 217.93 231.66 212.05 232.79&#10;  Q 208.78 233.42 207.10 234.25&#10;  Q 201.84 236.85 196.86 237.62&#10;  Q 193.11 238.20 189.05 239.56&#10;  Q 182.81 241.65 178.85 242.09&#10;  C 174.45 242.59 170.01 244.27 165.96 244.76&#10;  Q 161.40 245.32 156.31 246.67&#10;  Q 153.52 247.42 146.92 247.83&#10;  Q 145.24 247.93 143.63 248.32&#10;  C 140.43 249.10 138.38 249.68 135.46 249.63&#10;  Q 130.96 249.55 125.59 250.16&#10;  Q 119.37 250.86 115.74 250.93&#10;  Q 97.92 251.28 87.66 250.98&#10;  Q 85.31 250.91 82.46 250.39&#10;  Q 79.53 249.85 77.21 249.86&#10;  Q 73.00 249.88 69.37 249.39&#10;  Q 60.95 248.25 53.13 247.07&#10;  Q 52.54 246.98 50.85 246.46&#10;  Q 49.45 246.03 48.50 246.13&#10;  A 1.36 1.34 59.0 0 1 47.60 245.90&#10;  Q 46.85 245.38 46.18 245.24&#10;  Q 42.28 244.40 38.84 243.85&#10;  Q 34.81 243.22 31.77 241.81&#10;  Q 28.17 240.15 22.33 238.82&#10;  Q 18.89 238.05 15.65 236.47&#10;  C 11.89 234.63 4.26 230.01 4.02 236.40&#10;  Q 3.84 241.18 3.68 242.50&#10;  Q 3.28 245.66 3.74 248.55&#10;  Q 5.21 257.94 5.86 259.26&#10;  Q 9.68 267.07 17.20 271.62&#10;  Q 19.52 273.02 22.19 273.28&#10;  Q 24.07 273.47 27.38 274.31&#10;  Q 30.12 275.01 35.25 274.90&#10;  Q 43.01 274.74 45.50 274.96&#10;  Q 49.31 275.29 55.49 274.87&#10;  Q 55.75 274.85 65.50 275.07&#10;  Q 66.22 275.09 86.86 274.53&#10;  Q 89.63 274.46 95.13 274.61&#10;  Q 99.70 274.73 103.45 274.46&#10;  C 107.87 274.14 112.94 274.79 117.85 274.38&#10;  Q 123.55 273.91 128.28 274.27&#10;  C 134.26 274.71 139.74 273.08 145.63 273.92&#10;  Q 148.02 274.26 150.42 273.89&#10;  Q 151.07 273.79 155.64 273.49&#10;  Q 158.49 273.30 160.85 273.63&#10;  Q 164.44 274.14 167.74 273.60&#10;  C 170.68 273.12 173.38 273.42 176.88 273.69&#10;  C 182.30 274.10 188.65 273.29 193.12 273.71&#10;  Q 196.62 274.04 201.96 273.68&#10;  Q 205.46 273.45 210.84 273.89&#10;  Q 212.73 274.05 217.63 273.73&#10;  Q 223.36 273.37 228.64 275.23&#10;  Q 197.85 276.30 184.25 276.30&#10;  Q 135.53 276.28 135.50 276.28&#10;  Q 121.25 276.34 107.01 276.64&#10;  Q 62.86 277.58 29.75 276.98&#10;  Q 27.96 276.95 21.49 275.39&#10;  C 14.17 273.62 9.61 269.45 5.59 262.98&#10;  Q 2.89 258.63 2.22 251.69&#10;  Q 1.14 240.67 2.10 234.73&#10;  Q 2.60 231.58 5.27 230.50&#10;  A 1.37 1.35 -47.1 0 1 6.20 230.46&#10;  Q 10.32 231.78 17.76 234.62&#10;  Q 24.95 237.36 28.99 238.59&#10;  Q 48.99 244.65 71.57 247.56&#10;  Q 78.39 248.44 81.06 248.45&#10;  Q 84.13 248.46 87.37 248.88&#10;  Q 89.00 249.09 93.66 249.06&#10;  Q 113.69 248.95 133.58 246.61&#10;  C 135.89 246.34 139.13 246.45 141.79 246.00&#10;  C 149.84 244.64 157.82 243.97 165.98 242.27&#10;  Q 181.57 239.01 187.57 237.30&#10;  Q 199.29 233.97 203.71 232.73&#10;  Q 208.17 231.49 212.18 229.93&#10;  C 216.79 228.15 223.86 225.84 229.21 223.21&#10;  C 232.96 221.35 237.04 220.37 240.80 218.33&#10;  C 246.69 215.14 253.60 211.75 259.81 208.22&#10;  Q 265.25 205.13 274.93 199.78&#10;  Q 278.99 197.53 281.26 197.57&#10;  C 287.25 197.68 287.22 204.83 287.35 209.80&#10;  Q 287.54 217.13 287.25 249.07&#10;  Q 287.20 255.22 284.47 259.96&#10;  Q 283.33 261.93 280.94 265.26&#10;  C 277.42 270.16 271.62 272.88 265.78 273.93&#10;  Z" data-c-fill="6d6b6d"/>
<path fill="#f31260" d="&#10;  M 265.78 273.93&#10;  Q 262.51 274.80 259.07 274.85&#10;  Q 243.53 275.09 228.64 275.23&#10;  Q 223.36 273.37 217.63 273.73&#10;  Q 212.73 274.05 210.84 273.89&#10;  Q 205.46 273.45 201.96 273.68&#10;  Q 196.62 274.04 193.12 273.71&#10;  C 188.65 273.29 182.30 274.10 176.88 273.69&#10;  C 173.38 273.42 170.68 273.12 167.74 273.60&#10;  Q 164.44 274.14 160.85 273.63&#10;  Q 158.49 273.30 155.64 273.49&#10;  Q 151.07 273.79 150.42 273.89&#10;  Q 148.02 274.26 145.63 273.92&#10;  C 139.74 273.08 134.26 274.71 128.28 274.27&#10;  Q 123.55 273.91 117.85 274.38&#10;  C 112.94 274.79 107.87 274.14 103.45 274.46&#10;  Q 99.70 274.73 95.13 274.61&#10;  Q 89.63 274.46 86.86 274.53&#10;  Q 66.22 275.09 65.50 275.07&#10;  Q 55.75 274.85 55.49 274.87&#10;  Q 49.31 275.29 45.50 274.96&#10;  Q 43.01 274.74 35.25 274.90&#10;  Q 30.12 275.01 27.38 274.31&#10;  Q 24.07 273.47 22.19 273.28&#10;  Q 19.52 273.02 17.20 271.62&#10;  Q 9.68 267.07 5.86 259.26&#10;  Q 5.21 257.94 3.74 248.55&#10;  Q 3.28 245.66 3.68 242.50&#10;  Q 3.84 241.18 4.02 236.40&#10;  C 4.26 230.01 11.89 234.63 15.65 236.47&#10;  Q 18.89 238.05 22.33 238.82&#10;  Q 28.17 240.15 31.77 241.81&#10;  Q 34.81 243.22 38.84 243.85&#10;  Q 42.28 244.40 46.18 245.24&#10;  Q 46.85 245.38 47.60 245.90&#10;  A 1.36 1.34 59.0 0 0 48.50 246.13&#10;  Q 49.45 246.03 50.85 246.46&#10;  Q 52.54 246.98 53.13 247.07&#10;  Q 60.95 248.25 69.37 249.39&#10;  Q 73.00 249.88 77.21 249.86&#10;  Q 79.53 249.85 82.46 250.39&#10;  Q 85.31 250.91 87.66 250.98&#10;  Q 97.92 251.28 115.74 250.93&#10;  Q 119.37 250.86 125.59 250.16&#10;  Q 130.96 249.55 135.46 249.63&#10;  C 138.38 249.68 140.43 249.10 143.63 248.32&#10;  Q 145.24 247.93 146.92 247.83&#10;  Q 153.52 247.42 156.31 246.67&#10;  Q 161.40 245.32 165.96 244.76&#10;  C 170.01 244.27 174.45 242.59 178.85 242.09&#10;  Q 182.81 241.65 189.05 239.56&#10;  Q 193.11 238.20 196.86 237.62&#10;  Q 201.84 236.85 207.10 234.25&#10;  Q 208.78 233.42 212.05 232.79&#10;  Q 217.93 231.66 222.19 228.73&#10;  Q 223.10 228.10 226.40 227.24&#10;  C 229.10 226.53 231.65 224.70 234.02 224.28&#10;  Q 236.01 223.93 237.47 222.94&#10;  Q 238.46 222.27 240.89 221.35&#10;  Q 243.55 220.34 245.08 219.45&#10;  C 246.36 218.71 248.47 217.37 250.52 216.54&#10;  Q 253.76 215.23 254.97 214.29&#10;  Q 256.29 213.26 257.80 212.73&#10;  Q 258.98 212.32 260.72 211.26&#10;  Q 265.90 208.10 268.94 206.16&#10;  Q 271.93 204.24 273.28 203.72&#10;  Q 275.61 202.81 277.81 201.62&#10;  C 279.21 200.87 280.52 201.13 282.46 201.12&#10;  A 1.14 1.14 0.0 0 1 283.32 201.51&#10;  C 285.69 204.27 285.27 209.93 284.79 213.51&#10;  Q 284.39 216.46 284.56 220.55&#10;  Q 285.19 235.14 285.09 237.44&#10;  Q 284.79 244.26 283.76 253.55&#10;  C 283.48 256.06 283.18 257.77 281.80 259.91&#10;  C 279.79 263.05 277.52 266.96 273.80 268.81&#10;  Q 269.43 270.98 264.61 272.39&#10;  Q 264.11 272.54 264.08 273.06&#10;  Q 264.07 273.19 264.10 273.32&#10;  Q 264.21 273.80 264.70 273.84&#10;  L 265.78 273.93&#10;  Z" data-c-fill="333333"/>
</svg>