<svg xmlns="http://www.w3.org/2000/svg" version="1.1" viewBox="1.419856071472168 -0.054999999701976776 289.4073181152344 62.63414001464844" width="292.00" height="64.00">
<g stroke-width="2.00" fill="none" stroke-linecap="butt">
<path stroke="#f31260" vector-effect="non-scaling-stroke" d="&#10;  M 144.51 21.58&#10;  Q 142.46 20.34 140.73 18.77&#10;  Q 140.18 18.28 136.45 16.80&#10;  Q 134.32 15.95 131.91 15.77&#10;  Q 125.95 15.33 119.95 16.10&#10;  Q 118.68 16.26 115.22 18.04&#10;  Q 114.16 18.59 112.59 19.85&#10;  Q 111.35 20.84 109.94 21.64" data-c-stroke="4f4d4e"/>
<path stroke="#f31260" vector-effect="non-scaling-stroke" d="&#10;  M 146.28 31.55&#10;  Q 146.47 31.49 146.52 31.30&#10;  Q 146.61 30.97 146.27 30.91&#10;  Q 141.43 30.16 136.39 31.34" data-c-stroke="4f4d4e"/>
<path stroke="#f31260" vector-effect="non-scaling-stroke" d="&#10;  M 116.99 34.92&#10;  Q 115.56 38.56 117.00 41.94" data-c-stroke="4f4d4e"/>
<path stroke="#f31260" vector-effect="non-scaling-stroke" d="&#10;  M 137.32 45.52&#10;  Q 143.14 46.60 148.73 46.09" data-c-stroke="4f4d4e"/>
<path stroke="#f31260" vector-effect="non-scaling-stroke" d="&#10;  M 130.44 62.06&#10;  Q 127.35 61.42 124.13 62.08" data-c-stroke="4f4d4e"/>
<path stroke="#f31260" vector-effect="non-scaling-stroke" d="&#10;  M 284.30 20.90&#10;  Q 277.76 15.73 269.96 15.35&#10;  Q 268.87 15.30 266.83 15.53&#10;  Q 265.26 15.70 263.68 15.66&#10;  Q 261.84 15.61 259.03 16.43&#10;  Q 256.60 17.14 254.29 17.91" data-c-stroke="4f4d4e"/>
<path stroke="#f31260" vector-effect="non-scaling-stroke" d="&#10;  M 290.67 42.03&#10;  Q 274.17 40.57 257.76 41.47&#10;  A 0.95 0.95 0.0 0 0 256.94 42.07&#10;  Q 256.84 42.33 257.12 42.79" data-c-stroke="4f4d4e"/>
<path stroke="#f31260" vector-effect="non-scaling-stroke" d="&#10;  M 258.63 47.63&#10;  Q 263.78 54.97 272.09 51.67&#10;  C 274.04 50.89 274.63 49.34 275.42 47.63&#10;  Q 275.64 47.16 276.16 47.12&#10;  Q 282.63 46.66 289.05 47.75" data-c-stroke="4f4d4e"/>
<path stroke="#f31260" vector-effect="non-scaling-stroke" d="&#10;  M 277.45 60.35&#10;  L 262.18 61.82" data-c-stroke="4f4d4e"/>
<path stroke="#f31260" vector-effect="non-scaling-stroke" d="&#10;  M 250.50 21.19&#10;  Q 252.93 20.31 254.29 17.91" data-c-stroke="4f4d4e"/>
<path stroke="#f31260" vector-effect="non-scaling-stroke" d="&#10;  M 37.24 19.20&#10;  Q 37.73 19.21 37.84 19.57&#10;  Q 38.03 20.20 37.82 20.62&#10;  A 0.51 0.50 33.9 0 1 37.03 20.77&#10;  Q 33.03 17.14 27.82 15.95&#10;  Q 21.21 14.45 12.32 17.15" data-c-stroke="4f4d4e"/>
<path stroke="#f31260" vector-effect="non-scaling-stroke" d="&#10;  M 24.76 62.01&#10;  Q 22.54 61.49 20.30 62.00" data-c-stroke="4f4d4e"/>
<path stroke="#f31260" vector-effect="non-scaling-stroke" d="&#10;  M 50.24 15.70&#10;  L 37.62 16.27" data-c-stroke="4f4d4e"/>
<path stroke="#f31260" vector-effect="non-scaling-stroke" d="&#10;  M 189.54 19.61&#10;  Q 189.90 19.81 190.06 20.07&#10;  Q 190.39 20.62 189.77 20.82&#10;  Q 189.27 20.97 188.90 20.40&#10;  Q 187.45 18.20 186.10 17.69&#10;  C 183.65 16.76 182.02 15.89 179.63 15.70&#10;  Q 173.18 15.18 166.67 16.51" data-c-stroke="4f4d4e"/>
<path stroke="#f31260" vector-effect="non-scaling-stroke" d="&#10;  M 200.69 61.92&#10;  Q 196.55 60.47 192.35 61.69" data-c-stroke="4f4d4e"/>
<path stroke="#f31260" vector-effect="non-scaling-stroke" d="&#10;  M 184.04 60.60&#10;  Q 182.62 60.67 181.21 61.11&#10;  Q 179.63 61.60 178.45 61.61&#10;  Q 175.01 61.63 171.43 61.89" data-c-stroke="4f4d4e"/>
<path stroke="#f31260" vector-effect="non-scaling-stroke" d="&#10;  M 202.80 15.72&#10;  L 190.82 15.69" data-c-stroke="4f4d4e"/>
<path stroke="#f31260" vector-effect="non-scaling-stroke" d="&#10;  M 240.10 21.86&#10;  L 239.48 16.64&#10;  A 1.26 1.26 0.0 0 0 238.29 15.54&#10;  Q 232.03 15.23 227.48 20.55&#10;  A 1.27 1.27 0.0 0 1 225.25 19.73&#10;  L 225.25 16.98&#10;  A 1.18 1.18 0.0 0 0 224.07 15.80&#10;  L 213.64 15.81" data-c-stroke="4f4d4e"/>
<path stroke="#f31260" vector-effect="non-scaling-stroke" d="&#10;  M 224.47 61.86&#10;  Q 220.38 60.71 216.29 61.86" data-c-stroke="4f4d4e"/>
<path stroke="#f31260" vector-effect="non-scaling-stroke" d="&#10;  M 71.19 0.00&#10;  L 61.03 0.26" data-c-stroke="4f4d4e"/>
<path stroke="#f31260" vector-effect="non-scaling-stroke" d="&#10;  M 257.60 33.47&#10;  L 257.72 33.98&#10;  A 0.69 0.67 83.2 0 0 258.39 34.52&#10;  L 276.01 34.40&#10;  Q 276.21 34.40 276.11 34.19&#10;  L 276.10 34.19&#10;  Q 276.03 34.05 275.97 34.04&#10;  L 273.52 33.87" data-c-stroke="4f4d4e"/>
<path stroke="#f31260" vector-effect="non-scaling-stroke" d="&#10;  M 37.63 36.91&#10;  A 13.29 11.89 -87.4 0 0 30.13 25.90&#10;  A 13.26 11.89 -87.9 0 0 19.08 27.41" data-c-stroke="4f4d4e"/>
</g>
<path fill="#f31260" d="&#10;  M 71.19 0.00&#10;  L 61.03 0.26&#10;  Q 61.01 0.11 61.14 0.00&#10;  L 71.19 0.00&#10;  Z" data-c-fill="787576"/>
<path fill="#f31260" d="&#10;  M 71.69 0.00&#10;  L 72.40 0.35&#10;  Q 72.77 0.53 72.77 0.95&#10;  L 72.77 60.78&#10;  A 1.06 1.05 -90.0 0 1 71.72 61.84&#10;  L 61.54 61.84&#10;  A 1.05 1.05 0.0 0 1 60.49 60.79&#10;  Q 60.39 30.83 60.38 0.63&#10;  Q 60.38 0.29 61.03 0.26&#10;  L 71.19 0.00&#10;  Q 70.92 -0.11 71.69 0.00&#10;  Z" data-c-fill="252525"/>
<path fill="#f31260" d="&#10;  M 94.96 0.00&#10;  L 96.01 0.36&#10;  Q 96.48 0.52 96.48 1.01&#10;  L 96.48 60.62&#10;  A 1.25 1.25 0.0 0 1 95.23 61.87&#10;  L 85.29 61.87&#10;  A 1.31 1.31 0.0 0 1 83.98 60.56&#10;  L 83.98 1.12&#10;  Q 83.98 0.65 84.38 0.39&#10;  L 84.96 0.00&#10;  L 94.96 0.00&#10;  Z" data-c-fill="252525"/>
<path fill="#f31260" d="&#10;  M 144.51 21.58&#10;  Q 142.46 20.34 140.73 18.77&#10;  Q 140.18 18.28 136.45 16.80&#10;  Q 134.32 15.95 131.91 15.77&#10;  Q 125.95 15.33 119.95 16.10&#10;  Q 118.68 16.26 115.22 18.04&#10;  Q 114.16 18.59 112.59 19.85&#10;  Q 111.35 20.84 109.94 21.64&#10;  Q 113.67 17.34 118.25 15.74&#10;  Q 125.75 13.13 133.51 14.90&#10;  Q 140.09 16.40 144.51 21.58&#10;  Z" data-c-fill="787576"/>
<path fill="#f31260" d="&#10;  M 284.30 20.90&#10;  Q 277.76 15.73 269.96 15.35&#10;  Q 268.87 15.30 266.83 15.53&#10;  Q 265.26 15.70 263.68 15.66&#10;  Q 261.84 15.61 259.03 16.43&#10;  Q 256.60 17.14 254.29 17.91&#10;  Q 254.63 17.47 255.36 17.11&#10;  Q 271.30 9.34 284.30 20.90&#10;  Z" data-c-fill="787576"/>
<path fill="#f31260" d="&#10;  M 37.24 19.20&#10;  Q 37.73 19.21 37.84 19.57&#10;  Q 38.03 20.20 37.82 20.62&#10;  A 0.51 0.50 33.9 0 1 37.03 20.77&#10;  Q 33.03 17.14 27.82 15.95&#10;  Q 21.21 14.45 12.32 17.15&#10;  Q 24.84 10.48 35.50 18.89&#10;  Q 35.98 19.27 37.24 19.20&#10;  Z" data-c-fill="787576"/>
<path fill="#f31260" d="&#10;  M 189.54 19.61&#10;  Q 189.90 19.81 190.06 20.07&#10;  Q 190.39 20.62 189.77 20.82&#10;  Q 189.27 20.97 188.90 20.40&#10;  Q 187.45 18.20 186.10 17.69&#10;  C 183.65 16.76 182.02 15.89 179.63 15.70&#10;  Q 173.18 15.18 166.67 16.51&#10;  Q 174.28 13.06 182.42 15.41&#10;  Q 185.85 16.40 188.36 18.96&#10;  Q 188.67 19.29 189.10 19.44&#10;  L 189.54 19.61&#10;  Z" data-c-fill="787576"/>
<path fill="#f31260" d="&#10;  M 50.24 15.70&#10;  L 37.62 16.27&#10;  Q 37.65 15.38 39.08 15.13&#10;  Q 44.97 14.10 50.24 15.70&#10;  Z" data-c-fill="787576"/>
<path fill="#f31260" d="&#10;  M 240.10 21.86&#10;  L 239.48 16.64&#10;  A 1.26 1.26 0.0 0 0 238.29 15.54&#10;  Q 232.03 15.23 227.48 20.55&#10;  A 1.27 1.27 0.0 0 1 225.25 19.73&#10;  L 225.25 16.98&#10;  A 1.18 1.18 0.0 0 0 224.07 15.80&#10;  L 213.64 15.81&#10;  Q 218.24 14.29 224.83 15.23&#10;  A 1.49 1.49 0.0 0 1 226.10 16.70&#10;  L 226.10 18.47&#10;  A 0.99 0.99 0.0 0 0 227.77 19.18&#10;  Q 232.74 14.40 238.78 14.70&#10;  A 1.53 1.53 0.0 0 1 240.24 16.26&#10;  L 240.10 21.86&#10;  Z" data-c-fill="787576"/>
<path fill="#f31260" d="&#10;  M 202.80 15.72&#10;  L 190.82 15.69&#10;  Q 197.07 14.00 202.80 15.72&#10;  Z" data-c-fill="787576"/>
<path fill="#f31260" d="&#10;  M 284.30 20.90&#10;  Q 291.84 29.14 290.67 42.03&#10;  Q 274.17 40.57 257.76 41.47&#10;  A 0.95 0.95 0.0 0 0 256.94 42.07&#10;  Q 256.84 42.33 257.12 42.79&#10;  Q 256.92 44.88 258.63 47.63&#10;  Q 263.78 54.97 272.09 51.67&#10;  C 274.04 50.89 274.63 49.34 275.42 47.63&#10;  Q 275.64 47.16 276.16 47.12&#10;  Q 282.63 46.66 289.05 47.75&#10;  Q 285.73 57.00 277.45 60.35&#10;  L 262.18 61.82&#10;  Q 254.60 60.48 249.62 54.67&#10;  Q 246.15 50.62 244.85 45.03&#10;  Q 243.60 39.67 244.31 34.01&#10;  Q 245.27 26.37 250.50 21.19&#10;  Q 252.93 20.31 254.29 17.91&#10;  Q 256.60 17.14 259.03 16.43&#10;  Q 261.84 15.61 263.68 15.66&#10;  Q 265.26 15.70 266.83 15.53&#10;  Q 268.87 15.30 269.96 15.35&#10;  Q 277.76 15.73 284.30 20.90&#10;  Z&#10;  M 257.60 33.47&#10;  L 257.72 33.98&#10;  A 0.69 0.67 83.2 0 0 258.39 34.52&#10;  L 276.01 34.40&#10;  Q 276.21 34.40 276.11 34.19&#10;  L 276.10 34.19&#10;  Q 276.03 34.05 275.97 34.04&#10;  L 273.52 33.87&#10;  L 276.13 33.75&#10;  A 1.36 1.36 0.0 0 0 277.34 31.91&#10;  Q 275.34 26.54 270.33 25.36&#10;  Q 263.83 23.83 259.37 28.33&#10;  Q 256.97 30.75 257.60 33.47&#10;  Z" data-c-fill="252525"/>
<path fill="#f31260" d="&#10;  M 37.24 19.20&#10;  Q 37.83 18.56 37.62 16.27&#10;  L 50.24 15.70&#10;  L 50.07 60.40&#10;  Q 50.07 61.73 48.74 61.73&#10;  L 38.76 61.73&#10;  Q 37.73 61.73 37.73 60.70&#10;  L 37.73 57.60&#10;  A 0.71 0.71 0.0 0 0 36.62 57.02&#10;  C 33.00 59.52 29.03 62.25 24.76 62.01&#10;  Q 22.54 61.49 20.30 62.00&#10;  Q 16.60 61.91 13.22 60.02&#10;  C 3.90 54.81 0.36 44.19 1.69 34.00&#10;  Q 3.18 22.48 12.32 17.15&#10;  Q 21.21 14.45 27.82 15.95&#10;  Q 33.03 17.14 37.03 20.77&#10;  A 0.51 0.50 33.9 0 0 37.82 20.62&#10;  Q 38.03 20.20 37.84 19.57&#10;  Q 37.73 19.21 37.24 19.20&#10;  Z&#10;  M 19.08 27.41&#10;  A 13.29 11.91 -87.5 0 0 13.92 37.27&#10;  A 13.30 11.90 -87.2 0 0 18.29 48.71&#10;  A 13.30 11.92 -87.5 0 0 28.51 51.20&#10;  A 13.24 11.88 -87.5 0 0 36.08 44.86&#10;  A 13.26 11.89 -87.3 0 0 37.63 36.91&#10;  A 13.29 11.89 -87.4 0 0 30.13 25.90&#10;  A 13.26 11.89 -87.9 0 0 19.08 27.41&#10;  Z" data-c-fill="252525"/>
<path fill="#f31260" d="&#10;  M 144.51 21.58&#10;  Q 147.65 25.04 148.77 30.34&#10;  A 0.99 0.98 69.9 0 1 148.28 31.41&#10;  Q 147.49 31.84 146.28 31.55&#10;  Q 146.47 31.49 146.52 31.30&#10;  Q 146.61 30.97 146.27 30.91&#10;  Q 141.43 30.16 136.39 31.34&#10;  Q 134.79 30.28 132.79 27.27&#10;  Q 132.52 26.86 132.06 26.66&#10;  C 128.21 25.03 122.25 24.98 119.55 28.81&#10;  Q 117.59 31.59 116.99 34.92&#10;  Q 115.56 38.56 117.00 41.94&#10;  Q 119.01 53.27 129.71 51.29&#10;  Q 133.66 50.56 135.36 46.54&#10;  Q 135.56 46.07 136.02 45.85&#10;  Q 136.96 45.41 137.32 45.52&#10;  Q 143.14 46.60 148.73 46.09&#10;  Q 148.39 48.79 147.31 50.80&#10;  Q 141.98 60.68 130.44 62.06&#10;  Q 127.35 61.42 124.13 62.08&#10;  C 115.43 61.30 107.08 55.06 105.31 46.22&#10;  Q 104.68 43.03 104.30 40.90&#10;  Q 103.78 37.97 104.20 35.58&#10;  C 105.27 29.61 105.95 25.57 109.94 21.64&#10;  Q 111.35 20.84 112.59 19.85&#10;  Q 114.16 18.59 115.22 18.04&#10;  Q 118.68 16.26 119.95 16.10&#10;  Q 125.95 15.33 131.91 15.77&#10;  Q 134.32 15.95 136.45 16.80&#10;  Q 140.18 18.28 140.73 18.77&#10;  Q 142.46 20.34 144.51 21.58&#10;  Z" data-c-fill="252525"/>
<path fill="#f31260" d="&#10;  M 189.54 19.61&#10;  Q 190.41 19.54 190.48 18.50&#10;  Q 190.58 17.06 190.82 15.69&#10;  L 202.80 15.72&#10;  Q 202.83 38.18 202.62 60.44&#10;  Q 202.61 61.33 202.19 61.66&#10;  Q 201.64 62.09 200.69 61.92&#10;  Q 196.55 60.47 192.35 61.69&#10;  Q 190.87 62.28 190.79 61.01&#10;  Q 190.65 59.01 190.61 57.31&#10;  A 0.62 0.61 -17.9 0 0 189.65 56.82&#10;  L 184.04 60.60&#10;  Q 182.62 60.67 181.21 61.11&#10;  Q 179.63 61.60 178.45 61.61&#10;  Q 175.01 61.63 171.43 61.89&#10;  Q 161.86 59.63 157.75 51.52&#10;  Q 151.25 38.69 157.13 25.90&#10;  Q 160.14 19.35 166.67 16.51&#10;  Q 173.18 15.18 179.63 15.70&#10;  C 182.02 15.89 183.65 16.76 186.10 17.69&#10;  Q 187.45 18.20 188.90 20.40&#10;  Q 189.27 20.97 189.77 20.82&#10;  Q 190.39 20.62 190.06 20.07&#10;  Q 189.90 19.81 189.54 19.61&#10;  Z&#10;  M 179.3144 51.5386&#10;  A 13.00 11.82 87.6 0 0 190.5796 38.0550&#10;  A 13.00 11.82 87.6 0 0 178.2256 25.5614&#10;  A 13.00 11.82 87.6 0 0 166.9604 39.0450&#10;  A 13.00 11.82 87.6 0 0 179.3144 51.5386&#10;  Z" data-c-fill="252525"/>
<path fill="#f31260" d="&#10;  M 240.10 21.86&#10;  L 240.29 26.41&#10;  A 0.77 0.76 87.3 0 1 239.57 27.21&#10;  Q 236.02 27.43 233.24 27.95&#10;  C 226.72 29.17 225.77 35.83 225.81 41.51&#10;  Q 225.85 47.48 225.90 60.56&#10;  Q 225.90 61.25 225.60 61.55&#10;  Q 225.18 61.98 224.47 61.86&#10;  Q 220.38 60.71 216.29 61.86&#10;  Q 215.15 61.96 214.32 61.46&#10;  Q 213.87 61.19 213.87 60.67&#10;  L 213.64 15.81&#10;  L 224.07 15.80&#10;  A 1.18 1.18 0.0 0 1 225.25 16.98&#10;  L 225.25 19.73&#10;  A 1.27 1.27 0.0 0 0 227.48 20.55&#10;  Q 232.03 15.23 238.29 15.54&#10;  A 1.26 1.26 0.0 0 1 239.48 16.64&#10;  L 240.10 21.86&#10;  Z" data-c-fill="252525"/>
<path fill="#f31260" d="&#10;  M 254.29 17.91&#10;  Q 252.93 20.31 250.50 21.19&#10;  Q 252.14 19.10 254.29 17.91&#10;  Z" data-c-fill="787576"/>
<path fill="#f31260" d="&#10;  M 37.63 36.91&#10;  Q 36.38 30.80 32.21 27.83&#10;  Q 26.62 23.85 19.08 27.41&#10;  A 13.26 11.89 -87.9 0 1 30.13 25.90&#10;  A 13.29 11.89 -87.4 0 1 37.63 36.91&#10;  Z" data-c-fill="787576"/>
<path fill="#f31260" d="&#10;  M 146.28 31.55&#10;  Q 141.84 32.30 136.39 31.34&#10;  Q 141.43 30.16 146.27 30.91&#10;  Q 146.61 30.97 146.52 31.30&#10;  Q 146.47 31.49 146.28 31.55&#10;  Z" data-c-fill="787576"/>
<path fill="#f31260" d="&#10;  M 257.60 33.47&#10;  L 273.52 33.87&#10;  L 275.97 34.04&#10;  Q 276.03 34.05 276.10 34.19&#10;  L 276.11 34.19&#10;  Q 276.21 34.40 276.01 34.40&#10;  L 258.39 34.52&#10;  A 0.69 0.67 83.2 0 1 257.72 33.98&#10;  L 257.60 33.47&#10;  Z" data-c-fill="787576"/>
<path fill="#f31260" d="&#10;  M 116.99 34.92&#10;  L 117.00 41.94&#10;  Q 115.56 38.56 116.99 34.92&#10;  Z" data-c-fill="787576"/>
<path fill="#f31260" d="&#10;  M 290.67 42.03&#10;  Q 274.29 43.64 257.80 42.57&#10;  Q 257.48 42.55 257.12 42.79&#10;  Q 256.84 42.33 256.94 42.07&#10;  A 0.95 0.95 0.0 0 1 257.76 41.47&#10;  Q 274.17 40.57 290.67 42.03&#10;  Z" data-c-fill="787576"/>
<path fill="#f31260" d="&#10;  M 148.73 46.09&#10;  Q 143.14 46.60 137.32 45.52&#10;  Q 141.01 44.89 146.25 45.16&#10;  Q 148.01 45.25 148.73 46.09&#10;  Z" data-c-fill="787576"/>
<path fill="#f31260" d="&#10;  M 289.05 47.75&#10;  Q 282.63 46.66 276.16 47.12&#10;  Q 275.64 47.16 275.42 47.63&#10;  C 274.63 49.34 274.04 50.89 272.09 51.67&#10;  Q 263.78 54.97 258.63 47.63&#10;  Q 262.58 52.31 268.77 51.57&#10;  Q 273.28 51.03 275.55 47.00&#10;  A 2.01 2.00 -77.2 0 1 277.14 45.99&#10;  Q 282.51 45.59 287.98 46.13&#10;  Q 288.63 46.20 288.91 46.57&#10;  Q 289.26 47.05 289.05 47.75&#10;  Z" data-c-fill="787576"/>
<path fill="#f31260" d="&#10;  M 277.45 60.35&#10;  Q 270.53 63.88 262.18 61.82&#10;  L 277.45 60.35&#10;  Z" data-c-fill="787576"/>
<path fill="#f31260" d="&#10;  M 184.04 60.60&#10;  Q 178.22 63.37 171.43 61.89&#10;  Q 175.01 61.63 178.45 61.61&#10;  Q 179.63 61.60 181.21 61.11&#10;  Q 182.62 60.67 184.04 60.60&#10;  Z" data-c-fill="787576"/>
<path fill="#f31260" d="&#10;  M 200.69 61.92&#10;  L 192.35 61.69&#10;  Q 196.55 60.47 200.69 61.92&#10;  Z" data-c-fill="787576"/>
<path fill="#f31260" d="&#10;  M 224.47 61.86&#10;  L 216.29 61.86&#10;  Q 220.38 60.71 224.47 61.86&#10;  Z" data-c-fill="787576"/>
<path fill="#f31260" d="&#10;  M 24.76 62.01&#10;  Q 22.53 62.38 20.30 62.00&#10;  Q 22.54 61.49 24.76 62.01&#10;  Z" data-c-fill="787576"/>
<path fill="#f31260" d="&#10;  M 130.44 62.06&#10;  L 124.13 62.08&#10;  Q 127.35 61.42 130.44 62.06&#10;  Z" data-c-fill="787576"/>
</svg>