<svg xmlns="http://www.w3.org/2000/svg" version="1.1" viewBox="1.427142858505249 1.1666433811187744 289.3433837890625 347.26922607421875" width="292.00" height="350.00">
<g stroke-width="2.00" fill="none" stroke-linecap="butt">
<path stroke="#f31260" vector-effect="non-scaling-stroke" d="&#10;  M 151.31 82.53&#10;  L 150.75 82.46&#10;  A 0.88 0.88 0.0 0 0 149.80 83.54&#10;  L 160.88 130.56&#10;  Q 162.68 138.19 166.51 131.36&#10;  C 168.00 128.69 170.56 125.85 172.15 122.69&#10;  Q 173.00 121.01 174.07 119.90&#10;  Q 176.12 117.77 178.02 114.32&#10;  Q 179.54 111.55 181.70 108.66&#10;  Q 185.54 103.52 186.53 101.78&#10;  Q 189.59 96.43 191.92 94.31&#10;  Q 192.33 93.93 192.88 93.80&#10;  L 217.89 87.91&#10;  Q 218.17 87.84 218.19 88.13&#10;  Q 218.34 90.33 216.96 91.87&#10;  Q 214.93 94.13 214.78 94.43&#10;  Q 213.93 96.09 213.70 97.81" data-c-stroke="141414"/>
<path stroke="#f31260" vector-effect="non-scaling-stroke" d="&#10;  M 203.61 114.30&#10;  Q 203.08 113.26 201.99 114.71&#10;  Q 199.67 117.79 198.61 120.25&#10;  C 197.74 122.28 196.51 123.29 195.50 124.70&#10;  Q 195.21 125.11 195.09 125.59&#10;  Q 194.89 126.39 194.45 126.93&#10;  Q 193.42 128.22 193.34 128.35&#10;  Q 190.50 133.42 186.52 139.22&#10;  Q 184.81 141.70 181.75 146.96&#10;  Q 178.36 152.77 176.95 154.71&#10;  C 175.90 156.16 174.97 158.54 173.82 160.27&#10;  Q 169.63 166.58 167.92 170.01&#10;  Q 167.19 171.48 165.49 173.52&#10;  Q 164.38 174.85 163.13 177.11&#10;  Q 160.45 181.95 160.00 182.65&#10;  Q 158.27 185.29 156.55 187.94&#10;  Q 156.07 188.68 153.46 193.46&#10;  Q 152.02 196.11 149.81 198.66&#10;  C 149.45 199.08 149.16 199.82 149.06 200.40&#10;  A 1.27 1.25 74.7 0 1 148.61 201.20&#10;  C 145.69 203.62 141.77 208.97 137.50 211.97&#10;  Q 133.78 214.58 133.42 214.87&#10;  Q 131.59 216.31 128.99 217.11&#10;  Q 118.96 220.19 108.74 221.48&#10;  Q 106.43 221.78 104.87 221.44&#10;  Q 102.66 220.97 100.94 221.15&#10;  Q 98.61 221.39 95.36 220.34&#10;  Q 91.70 219.14 85.97 217.43&#10;  Q 85.27 217.22 83.94 216.50&#10;  Q 82.30 215.61 81.57 216.54" data-c-stroke="141414"/>
<path stroke="#f31260" vector-effect="non-scaling-stroke" d="&#10;  M 96.47 287.08&#10;  Q 95.23 288.84 95.23 290.00&#10;  Q 95.13 317.26 95.46 345.77&#10;  Q 95.47 346.14 95.82 346.03&#10;  Q 96.14 345.94 96.69 345.41" data-c-stroke="343534"/>
<path stroke="#f31260" vector-effect="non-scaling-stroke" d="&#10;  M 239.90 312.72&#10;  Q 239.50 312.64 239.43 312.01&#10;  Q 238.98 307.54 239.16 302.92&#10;  A 1.20 1.20 0.0 0 0 237.89 301.68&#10;  Q 232.41 301.98 228.58 305.81&#10;  Q 227.93 306.46 226.69 306.94&#10;  A 1.13 1.13 0.0 0 1 225.16 306.03&#10;  Q 224.86 303.74 225.67 302.21" data-c-stroke="454445"/>
<path stroke="#f31260" vector-effect="non-scaling-stroke" d="&#10;  M 225.48 302.02&#10;  Q 223.86 301.57 220.51 301.92&#10;  Q 219.56 302.02 216.50 301.36&#10;  Q 215.68 301.18 214.74 302.17&#10;  Q 214.68 302.23 214.58 302.18&#10;  Q 214.51 302.13 214.50 302.05&#10;  Q 214.48 301.60 214.23 302.05&#10;  Q 214.04 302.38 214.32 302.73&#10;  Q 214.62 303.11 214.63 303.60&#10;  Q 215.11 325.60 214.08 347.80" data-c-stroke="454445"/>
<path stroke="#f31260" vector-effect="non-scaling-stroke" d="&#10;  M 244.33 328.41&#10;  Q 245.52 330.28 246.05 332.41&#10;  Q 246.83 335.54 247.35 336.49&#10;  Q 249.66 340.72 253.71 343.58&#10;  Q 254.94 344.45 259.43 346.34&#10;  Q 262.87 347.79 265.33 347.62&#10;  Q 265.96 347.58 270.40 347.51&#10;  C 272.39 347.48 274.02 346.66 276.34 345.83&#10;  Q 279.00 344.88 280.53 343.85&#10;  Q 284.40 341.22 286.82 337.20&#10;  C 287.36 336.30 287.34 335.07 287.40 334.24&#10;  Q 287.45 333.63 286.83 333.63&#10;  L 278.17 333.63&#10;  A 2.93 2.92 -71.5 0 0 275.83 334.80&#10;  Q 272.72 338.96 267.27 338.85&#10;  Q 261.22 338.72 257.65 333.36&#10;  C 256.81 332.11 256.17 331.56 256.15 329.96&#10;  Q 256.09 326.73 259.15 326.88&#10;  Q 260.29 326.93 260.39 326.93&#10;  Q 277.66 326.71 284.75 327.04&#10;  Q 286.74 327.13 288.28 327.36&#10;  A 0.86 0.86 0.0 0 0 289.26 326.51&#10;  L 289.26 316.73&#10;  A 0.81 0.80 -61.8 0 0 289.13 316.29&#10;  Q 288.86 315.87 287.27 312.53&#10;  Q 283.02 303.62 273.01 301.83&#10;  Q 271.24 301.52 263.65 301.73&#10;  Q 261.22 301.80 259.75 302.63&#10;  Q 257.99 303.63 255.86 303.64&#10;  Q 255.27 303.65 254.85 304.06&#10;  L 248.60 310.32&#10;  Q 248.22 310.69 248.08 311.20&#10;  Q 247.67 312.71 246.96 313.55&#10;  Q 246.62 313.93 246.59 314.44&#10;  Q 246.35 317.85 244.37 319.74" data-c-stroke="454445"/>
<path stroke="#f31260" vector-effect="non-scaling-stroke" d="&#10;  M 49.98 307.81&#10;  Q 49.89 307.90 49.79 308.01&#10;  Q 49.63 308.20 49.63 308.58&#10;  L 49.53 343.62&#10;  Q 49.53 343.86 49.58 343.90&#10;  Q 49.64 343.94 49.58 344.05&#10;  A 0.19 0.08 -38.2 0 0 49.86 343.97&#10;  Q 49.95 343.83 50.10 343.75" data-c-stroke="343534"/>
<path stroke="#f31260" vector-effect="non-scaling-stroke" d="&#10;  M 164.07 3.62&#10;  Q 146.33 3.60 128.59 3.53&#10;  Q 127.50 3.52 119.91 3.68&#10;  Q 114.72 3.79 111.23 3.51&#10;  C 106.90 3.17 102.54 3.88 98.26 3.66&#10;  Q 92.75 3.38 88.58 3.48&#10;  Q 76.64 3.76 60.46 3.46&#10;  Q 57.99 3.41 52.58 3.60&#10;  C 48.11 3.76 43.30 3.07 38.81 3.61&#10;  Q 37.58 3.75 32.93 3.96&#10;  Q 26.83 4.23 24.21 4.96&#10;  Q 18.27 6.61 12.99 9.76&#10;  Q 11.99 10.36 11.42 11.16&#10;  Q 5.94 18.82 5.42 20.39&#10;  Q 4.16 24.16 3.70 37.08&#10;  Q 3.35 47.11 3.47 51.90&#10;  Q 3.50 52.94 3.81 53.79&#10;  Q 4.35 55.26 4.35 55.78&#10;  Q 4.38 59.62 4.37 63.48&#10;  Q 4.37 63.55 3.92 68.44&#10;  Q 3.62 71.79 4.93 75.02&#10;  Q 5.12 75.51 5.60 75.73&#10;  Q 6.98 76.36 8.65 75.64&#10;  Q 15.11 72.86 20.99 69.23&#10;  Q 27.60 65.16 29.32 64.43&#10;  Q 31.78 63.39 33.51 62.23&#10;  Q 36.30 60.36 37.56 59.79&#10;  Q 45.23 56.28 52.77 52.49&#10;  Q 53.45 52.14 58.71 50.40&#10;  Q 61.45 49.49 64.53 48.00&#10;  Q 70.19 45.25 76.25 43.83&#10;  Q 79.31 43.11 82.13 41.71&#10;  Q 86.79 39.39 91.26 38.84&#10;  Q 94.70 38.41 97.30 37.49&#10;  Q 98.45 37.08 103.28 35.78&#10;  Q 122.19 30.68 146.57 27.77&#10;  C 153.06 26.99 158.46 27.02 164.02 26.16&#10;  Q 169.02 25.38 177.11 25.39&#10;  Q 201.22 25.40 207.71 25.68&#10;  Q 218.64 26.13 234.95 28.91&#10;  Q 239.67 29.71 242.59 30.59&#10;  Q 247.08 31.96 250.17 32.36&#10;  Q 253.25 32.77 258.90 35.06&#10;  Q 262.95 36.71 268.79 38.34&#10;  Q 272.62 39.42 274.90 40.58&#10;  Q 278.53 42.43 280.82 43.28&#10;  A 1.18 1.17 11.8 0 0 282.40 42.25&#10;  C 282.63 38.36 283.44 33.81 283.18 30.34&#10;  Q 282.66 23.23 279.75 16.87&#10;  Q 275.33 7.21 265.09 5.18&#10;  C 261.81 4.53 257.29 3.12 253.32 3.31&#10;  C 250.18 3.45 247.68 3.54 244.01 3.33&#10;  Q 240.26 3.12 236.55 3.28&#10;  C 231.02 3.53 225.36 2.90 220.34 3.26&#10;  Q 215.26 3.63 211.63 3.38&#10;  Q 208.43 3.16 202.24 3.53&#10;  Q 198.43 3.76 192.84 3.60&#10;  Q 185.11 3.39 178.43 3.47&#10;  Q 165.65 3.62 164.07 3.62" data-c-stroke="3b3c3b"/>
<path stroke="#f31260" vector-effect="non-scaling-stroke" d="&#10;  M 80.67 170.56&#10;  Q 80.16 174.16 81.58 177.65&#10;  Q 82.25 179.29 82.75 181.05&#10;  Q 83.24 182.77 84.46 184.34&#10;  Q 84.67 184.61 87.03 188.07&#10;  Q 88.20 189.78 90.19 191.62&#10;  Q 95.92 196.92 103.45 198.44&#10;  Q 122.61 202.28 135.34 187.82&#10;  C 136.19 186.85 136.68 185.67 137.43 184.86&#10;  Q 138.33 183.89 138.97 182.60&#10;  Q 141.96 176.54 142.07 174.76&#10;  Q 142.43 168.69 142.60 167.61&#10;  Q 142.82 166.27 142.25 165.12&#10;  Q 141.82 164.24 141.92 162.43&#10;  Q 142.01 160.60 141.35 158.49&#10;  Q 139.61 152.99 136.63 147.61&#10;  Q 135.82 146.15 134.03 144.66&#10;  Q 132.37 143.28 130.83 141.67&#10;  Q 125.11 135.70 117.36 135.40&#10;  Q 116.87 135.38 116.50 135.04&#10;  Q 115.26 133.89 114.02 134.00&#10;  Q 109.32 134.41 107.18 134.33&#10;  Q 105.66 134.26 104.41 134.65&#10;  C 102.34 135.28 100.00 135.74 97.81 136.88&#10;  Q 95.28 138.21 94.07 138.51&#10;  Q 92.11 138.99 90.74 140.51&#10;  Q 90.12 141.20 87.78 143.22&#10;  Q 86.11 144.65 85.03 146.03&#10;  Q 83.22 148.34 82.80 149.27&#10;  Q 81.67 151.79 82.90 152.06" data-c-stroke="141414"/>
<path stroke="#f31260" vector-effect="non-scaling-stroke" d="&#10;  M 237.10 222.39&#10;  Q 237.30 222.49 237.29 222.59&#10;  A 0.60 0.58 -8.0 0 1 236.90 223.09&#10;  Q 219.68 229.35 211.32 232.21&#10;  Q 201.18 235.69 192.21 238.11&#10;  Q 170.14 244.08 146.86 247.73&#10;  Q 140.79 248.69 131.89 249.46&#10;  Q 123.51 250.18 116.85 250.87&#10;  Q 113.92 251.17 93.46 251.04&#10;  Q 81.18 250.95 73.80 250.20&#10;  Q 63.41 249.14 54.23 247.73&#10;  C 48.99 246.93 44.33 245.01 39.34 244.15&#10;  Q 35.39 243.47 30.64 241.70&#10;  Q 27.01 240.35 22.04 238.91&#10;  Q 19.26 238.11 10.87 235.04&#10;  Q 8.14 234.04 5.90 233.89&#10;  A 0.89 0.89 0.0 0 0 4.95 234.68&#10;  Q 4.26 241.11 4.33 246.22&#10;  C 4.47 256.46 9.57 267.77 19.85 270.95&#10;  Q 27.94 273.45 36.30 273.26&#10;  Q 43.76 273.10 43.83 273.10&#10;  Q 58.71 273.43 60.59 273.63&#10;  Q 65.00 274.11 70.95 273.69&#10;  Q 73.75 273.49 81.35 273.83&#10;  Q 83.96 273.95 87.71 273.67&#10;  Q 90.57 273.46 94.06 273.65&#10;  Q 97.79 273.84 103.55 273.49&#10;  Q 108.30 273.19 111.09 273.41&#10;  Q 114.62 273.69 118.52 273.43&#10;  Q 123.16 273.12 128.70 273.52&#10;  Q 132.30 273.78 135.96 273.25&#10;  Q 141.34 272.47 145.69 273.20&#10;  Q 148.29 273.63 151.99 273.19&#10;  Q 157.33 272.55 161.59 273.16&#10;  C 164.63 273.59 167.67 273.21 170.28 272.90&#10;  Q 172.73 272.60 176.30 273.02&#10;  C 180.61 273.52 183.53 273.42 188.04 272.92&#10;  Q 190.53 272.65 192.95 273.15&#10;  Q 195.55 273.69 197.72 273.60&#10;  Q 205.37 273.26 212.70 273.66&#10;  C 214.48 273.76 216.86 273.67 218.89 273.43&#10;  Q 220.11 273.28 223.50 273.60&#10;  Q 228.22 274.04 232.35 273.83&#10;  Q 237.95 273.54 241.16 273.74&#10;  Q 245.99 274.06 256.90 273.65&#10;  Q 262.68 273.43 266.26 272.13&#10;  Q 272.43 269.88 274.86 267.85&#10;  Q 278.55 264.75 282.12 257.88&#10;  Q 283.54 255.16 283.88 251.12&#10;  Q 284.45 244.53 284.44 244.09&#10;  Q 284.16 215.19 284.28 209.03&#10;  C 284.46 200.65 278.31 200.89 272.75 204.00&#10;  Q 261.20 210.47 253.14 215.16&#10;  Q 246.68 218.91 237.84 222.59&#10;  Q 237.57 222.71 237.57 222.42&#10;  L 237.57 222.09&#10;  Q 237.57 221.85 237.79 221.74&#10;  L 245.51 218.01&#10;  Q 245.65 217.94 245.54 217.83&#10;  L 245.54 217.82&#10;  Q 245.42 217.69 245.36 217.73&#10;  L 236.55 222.00&#10;  A 0.25 0.11 -87.8 0 0 236.46 222.19&#10;  Q 236.39 222.68 236.97 222.39&#10;  Q 237.04 222.36 237.10 222.39" data-c-stroke="4c4b4c"/>
<path stroke="#f31260" vector-effect="non-scaling-stroke" d="&#10;  M 274.82 313.84&#10;  Q 274.59 312.64 273.08 311.89&#10;  Q 269.68 310.21 269.63 310.19&#10;  Q 267.10 309.15 264.76 310.01&#10;  Q 262.40 310.88 260.48 311.99&#10;  C 258.93 312.87 257.94 315.34 257.10 316.49&#10;  Q 256.17 317.76 256.36 318.65&#10;  Q 256.74 320.43 258.00 320.73&#10;  Q 259.03 320.98 270.01 320.84&#10;  Q 273.16 320.80 276.32 320.89&#10;  A 1.08 1.07 -68.8 0 0 277.15 320.52&#10;  Q 277.80 319.77 277.15 319.58" data-c-stroke="454445"/>
</g>
<path fill="#f31260" d="&#10;  M 145.97 29.77&#10;  Q 142.46 30.62 138.94 30.83&#10;  Q 135.52 31.04 129.69 32.28&#10;  Q 127.40 32.76 120.45 33.99&#10;  Q 104.12 36.90 87.58 42.60&#10;  Q 77.15 46.20 67.33 49.73&#10;  Q 63.39 51.14 59.00 53.22&#10;  C 55.53 54.86 51.27 56.08 47.88 57.85&#10;  Q 43.87 59.93 36.71 63.33&#10;  Q 33.13 65.03 25.80 69.27&#10;  Q 13.30 76.52 11.36 77.64&#10;  C 8.05 79.55 3.05 78.81 2.14 74.44&#10;  Q 1.55 71.65 1.53 69.75&#10;  Q 1.41 55.81 1.43 41.87&#10;  Q 1.45 28.70 1.86 26.15&#10;  Q 3.22 17.76 8.01 11.25&#10;  Q 11.90 5.96 18.31 4.04&#10;  C 23.55 2.47 27.92 1.51 33.69 1.50&#10;  Q 90.82 1.32 108.07 1.58&#10;  Q 163.62 2.39 181.36 1.88&#10;  Q 216.67 0.87 254.42 1.29&#10;  C 258.45 1.34 263.16 2.41 266.77 3.22&#10;  Q 275.05 5.08 279.63 11.66&#10;  C 281.62 14.53 283.19 17.37 284.04 20.92&#10;  Q 286.58 31.59 285.81 41.75&#10;  Q 285.64 43.97 284.31 45.34&#10;  C 282.54 47.15 278.86 45.73 276.73 44.77&#10;  Q 248.12 31.85 218.01 28.71&#10;  C 213.06 28.19 206.56 28.11 201.40 27.63&#10;  Q 197.89 27.31 194.11 27.52&#10;  Q 192.72 27.60 186.83 27.45&#10;  Q 180.19 27.28 177.17 27.52&#10;  C 172.88 27.87 169.63 27.76 164.29 28.27&#10;  Q 158.68 28.80 153.06 29.07&#10;  Q 147.87 29.32 145.97 29.77&#10;  Z&#10;  M 164.07 3.62&#10;  Q 146.33 3.60 128.59 3.53&#10;  Q 127.50 3.52 119.91 3.68&#10;  Q 114.72 3.79 111.23 3.51&#10;  C 106.90 3.17 102.54 3.88 98.26 3.66&#10;  Q 92.75 3.38 88.58 3.48&#10;  Q 76.64 3.76 60.46 3.46&#10;  Q 57.99 3.41 52.58 3.60&#10;  C 48.11 3.76 43.30 3.07 38.81 3.61&#10;  Q 37.58 3.75 32.93 3.96&#10;  Q 26.83 4.23 24.21 4.96&#10;  Q 18.27 6.61 12.99 9.76&#10;  Q 11.99 10.36 11.42 11.16&#10;  Q 5.94 18.82 5.42 20.39&#10;  Q 4.16 24.16 3.70 37.08&#10;  Q 3.35 47.11 3.47 51.90&#10;  Q 3.50 52.94 3.81 53.79&#10;  Q 4.35 55.26 4.35 55.78&#10;  Q 4.38 59.62 4.37 63.48&#10;  Q 4.37 63.55 3.92 68.44&#10;  Q 3.62 71.79 4.93 75.02&#10;  Q 5.12 75.51 5.60 75.73&#10;  Q 6.98 76.36 8.65 75.64&#10;  Q 15.11 72.86 20.99 69.23&#10;  Q 27.60 65.16 29.32 64.43&#10;  Q 31.78 63.39 33.51 62.23&#10;  Q 36.30 60.36 37.56 59.79&#10;  Q 45.23 56.28 52.77 52.49&#10;  Q 53.45 52.14 58.71 50.40&#10;  Q 61.45 49.49 64.53 48.00&#10;  Q 70.19 45.25 76.25 43.83&#10;  Q 79.31 43.11 82.13 41.71&#10;  Q 86.79 39.39 91.26 38.84&#10;  Q 94.70 38.41 97.30 37.49&#10;  Q 98.45 37.08 103.28 35.78&#10;  Q 122.19 30.68 146.57 27.77&#10;  C 153.06 26.99 158.46 27.02 164.02 26.16&#10;  Q 169.02 25.38 177.11 25.39&#10;  Q 201.22 25.40 207.71 25.68&#10;  Q 218.64 26.13 234.95 28.91&#10;  Q 239.67 29.71 242.59 30.59&#10;  Q 247.08 31.96 250.17 32.36&#10;  Q 253.25 32.77 258.90 35.06&#10;  Q 262.95 36.71 268.79 38.34&#10;  Q 272.62 39.42 274.90 40.58&#10;  Q 278.53 42.43 280.82 43.28&#10;  A 1.18 1.17 11.8 0 0 282.40 42.25&#10;  C 282.63 38.36 283.44 33.81 283.18 30.34&#10;  Q 282.66 23.23 279.75 16.87&#10;  Q 275.33 7.21 265.09 5.18&#10;  C 261.81 4.53 257.29 3.12 253.32 3.31&#10;  C 250.18 3.45 247.68 3.54 244.01 3.33&#10;  Q 240.26 3.12 236.55 3.28&#10;  C 231.02 3.53 225.36 2.90 220.34 3.26&#10;  Q 215.26 3.63 211.63 3.38&#10;  Q 208.43 3.16 202.24 3.53&#10;  Q 198.43 3.76 192.84 3.60&#10;  Q 185.11 3.39 178.43 3.47&#10;  Q 165.65 3.62 164.07 3.62&#10;  Z" data-c-fill="424443"/>
<path fill="#f31260" d="&#10;  M 178.43 3.47&#10;  Q 185.11 3.39 192.84 3.60&#10;  Q 198.43 3.76 202.24 3.53&#10;  Q 208.43 3.16 211.63 3.38&#10;  Q 215.26 3.63 220.34 3.26&#10;  C 225.36 2.90 231.02 3.53 236.55 3.28&#10;  Q 240.26 3.12 244.01 3.33&#10;  C 247.68 3.54 250.18 3.45 253.32 3.31&#10;  C 257.29 3.12 261.81 4.53 265.09 5.18&#10;  Q 275.33 7.21 279.75 16.87&#10;  Q 282.66 23.23 283.18 30.34&#10;  C 283.44 33.81 282.63 38.36 282.40 42.25&#10;  A 1.18 1.17 11.8 0 1 280.82 43.28&#10;  Q 278.53 42.43 274.90 40.58&#10;  Q 272.62 39.42 268.79 38.34&#10;  Q 262.95 36.71 258.90 35.06&#10;  Q 253.25 32.77 250.17 32.36&#10;  Q 247.08 31.96 242.59 30.59&#10;  Q 239.67 29.71 234.95 28.91&#10;  Q 218.64 26.13 207.71 25.68&#10;  Q 201.22 25.40 177.11 25.39&#10;  Q 169.02 25.38 164.02 26.16&#10;  C 158.46 27.02 153.06 26.99 146.57 27.77&#10;  Q 122.19 30.68 103.28 35.78&#10;  Q 98.45 37.08 97.30 37.49&#10;  Q 94.70 38.41 91.26 38.84&#10;  Q 86.79 39.39 82.13 41.71&#10;  Q 79.31 43.11 76.25 43.83&#10;  Q 70.19 45.25 64.53 48.00&#10;  Q 61.45 49.49 58.71 50.40&#10;  Q 53.45 52.14 52.77 52.49&#10;  Q 45.23 56.28 37.56 59.79&#10;  Q 36.30 60.36 33.51 62.23&#10;  Q 31.78 63.39 29.32 64.43&#10;  Q 27.60 65.16 20.99 69.23&#10;  Q 15.11 72.86 8.65 75.64&#10;  Q 6.98 76.36 5.60 75.73&#10;  Q 5.12 75.51 4.93 75.02&#10;  Q 3.62 71.79 3.92 68.44&#10;  Q 4.37 63.55 4.37 63.48&#10;  Q 4.38 59.62 4.35 55.78&#10;  Q 4.35 55.26 3.81 53.79&#10;  Q 3.50 52.94 3.47 51.90&#10;  Q 3.35 47.11 3.70 37.08&#10;  Q 4.16 24.16 5.42 20.39&#10;  Q 5.94 18.82 11.42 11.16&#10;  Q 11.99 10.36 12.99 9.76&#10;  Q 18.27 6.61 24.21 4.96&#10;  Q 26.83 4.23 32.93 3.96&#10;  Q 37.58 3.75 38.81 3.61&#10;  C 43.30 3.07 48.11 3.76 52.58 3.60&#10;  Q 57.99 3.41 60.46 3.46&#10;  Q 76.64 3.76 88.58 3.48&#10;  Q 92.75 3.38 98.26 3.66&#10;  C 102.54 3.88 106.90 3.17 111.23 3.51&#10;  Q 114.72 3.79 119.91 3.68&#10;  Q 127.50 3.52 128.59 3.53&#10;  Q 146.33 3.60 164.07 3.62&#10;  Q 165.65 3.62 178.43 3.47&#10;  Z" data-c-fill="333333"/>
<path fill="#f31260" d="&#10;  M 151.31 82.53&#10;  L 150.75 82.46&#10;  A 0.88 0.88 0.0 0 0 149.80 83.54&#10;  L 160.88 130.56&#10;  Q 162.68 138.19 166.51 131.36&#10;  C 168.00 128.69 170.56 125.85 172.15 122.69&#10;  Q 173.00 121.01 174.07 119.90&#10;  Q 176.12 117.77 178.02 114.32&#10;  Q 179.54 111.55 181.70 108.66&#10;  Q 185.54 103.52 186.53 101.78&#10;  Q 189.59 96.43 191.92 94.31&#10;  Q 192.33 93.93 192.88 93.80&#10;  L 217.89 87.91&#10;  Q 218.17 87.84 218.19 88.13&#10;  Q 218.34 90.33 216.96 91.87&#10;  Q 214.93 94.13 214.78 94.43&#10;  Q 213.93 96.09 213.70 97.81&#10;  L 203.61 114.30&#10;  Q 203.08 113.26 201.99 114.71&#10;  Q 199.67 117.79 198.61 120.25&#10;  C 197.74 122.28 196.51 123.29 195.50 124.70&#10;  Q 195.21 125.11 195.09 125.59&#10;  Q 194.89 126.39 194.45 126.93&#10;  Q 193.42 128.22 193.34 128.35&#10;  Q 190.50 133.42 186.52 139.22&#10;  Q 184.81 141.70 181.75 146.96&#10;  Q 178.36 152.77 176.95 154.71&#10;  C 175.90 156.16 174.97 158.54 173.82 160.27&#10;  Q 169.63 166.58 167.92 170.01&#10;  Q 167.19 171.48 165.49 173.52&#10;  Q 164.38 174.85 163.13 177.11&#10;  Q 160.45 181.95 160.00 182.65&#10;  Q 158.27 185.29 156.55 187.94&#10;  Q 156.07 188.68 153.46 193.46&#10;  Q 152.02 196.11 149.81 198.66&#10;  C 149.45 199.08 149.16 199.82 149.06 200.40&#10;  A 1.27 1.25 74.7 0 1 148.61 201.20&#10;  C 145.69 203.62 141.77 208.97 137.50 211.97&#10;  Q 133.78 214.58 133.42 214.87&#10;  Q 131.59 216.31 128.99 217.11&#10;  Q 118.96 220.19 108.74 221.48&#10;  Q 106.43 221.78 104.87 221.44&#10;  Q 102.66 220.97 100.94 221.15&#10;  Q 98.61 221.39 95.36 220.34&#10;  Q 91.70 219.14 85.97 217.43&#10;  Q 85.27 217.22 83.94 216.50&#10;  Q 82.30 215.61 81.57 216.54&#10;  Q 67.91 208.64 61.12 195.13&#10;  Q 56.07 185.09 54.36 172.51&#10;  Q 52.91 161.77 54.68 152.61&#10;  Q 58.65 132.05 77.00 120.76&#10;  Q 88.16 113.88 99.06 112.50&#10;  Q 110.21 111.09 120.61 114.31&#10;  Q 126.64 116.17 130.77 119.41&#10;  Q 133.59 121.62 132.73 118.14&#10;  Q 129.82 106.41 126.77 92.73&#10;  Q 125.29 86.09 120.86 66.53&#10;  Q 120.20 63.61 122.62 63.35&#10;  Q 134.93 62.00 143.76 69.72&#10;  Q 149.40 74.67 151.31 82.53&#10;  Z&#10;  M 82.90 152.06&#10;  Q 78.80 161.03 80.67 170.56&#10;  Q 80.16 174.16 81.58 177.65&#10;  Q 82.25 179.29 82.75 181.05&#10;  Q 83.24 182.77 84.46 184.34&#10;  Q 84.67 184.61 87.03 188.07&#10;  Q 88.20 189.78 90.19 191.62&#10;  Q 95.92 196.92 103.45 198.44&#10;  Q 122.61 202.28 135.34 187.82&#10;  C 136.19 186.85 136.68 185.67 137.43 184.86&#10;  Q 138.33 183.89 138.97 182.60&#10;  Q 141.96 176.54 142.07 174.76&#10;  Q 142.43 168.69 142.60 167.61&#10;  Q 142.82 166.27 142.25 165.12&#10;  Q 141.82 164.24 141.92 162.43&#10;  Q 142.01 160.60 141.35 158.49&#10;  Q 139.61 152.99 136.63 147.61&#10;  Q 135.82 146.15 134.03 144.66&#10;  Q 132.37 143.28 130.83 141.67&#10;  Q 125.11 135.70 117.36 135.40&#10;  Q 116.87 135.38 116.50 135.04&#10;  Q 115.26 133.89 114.02 134.00&#10;  Q 109.32 134.41 107.18 134.33&#10;  Q 105.66 134.26 104.41 134.65&#10;  C 102.34 135.28 100.00 135.74 97.81 136.88&#10;  Q 95.28 138.21 94.07 138.51&#10;  Q 92.11 138.99 90.74 140.51&#10;  Q 90.12 141.20 87.78 143.22&#10;  Q 86.11 144.65 85.03 146.03&#10;  Q 83.22 148.34 82.80 149.27&#10;  Q 81.67 151.79 82.90 152.06&#10;  Z" data-c-fill="020202"/>
<path fill="#f31260" d="&#10;  M 151.31 82.53&#10;  L 163.31 131.93&#10;  A 0.69 0.68 54.5 0 0 164.55 132.14&#10;  Q 166.13 129.67 166.43 129.22&#10;  Q 188.07 97.17 189.54 95.04&#10;  C 190.75 93.31 191.89 92.64 194.08 92.12&#10;  Q 206.40 89.23 219.43 86.16&#10;  A 0.90 0.90 0.0 0 1 220.39 87.53&#10;  L 213.70 97.81&#10;  Q 213.93 96.09 214.78 94.43&#10;  Q 214.93 94.13 216.96 91.87&#10;  Q 218.34 90.33 218.19 88.13&#10;  Q 218.17 87.84 217.89 87.91&#10;  L 192.88 93.80&#10;  Q 192.33 93.93 191.92 94.31&#10;  Q 189.59 96.43 186.53 101.78&#10;  Q 185.54 103.52 181.70 108.66&#10;  Q 179.54 111.55 178.02 114.32&#10;  Q 176.12 117.77 174.07 119.90&#10;  Q 173.00 121.01 172.15 122.69&#10;  C 170.56 125.85 168.00 128.69 166.51 131.36&#10;  Q 162.68 138.19 160.88 130.56&#10;  L 149.80 83.54&#10;  A 0.88 0.88 0.0 0 1 150.75 82.46&#10;  L 151.31 82.53&#10;  Z" data-c-fill="252525"/>
<path fill="#f31260" d="&#10;  M 203.61 114.30&#10;  Q 178.79 154.87 153.75 195.26&#10;  C 147.05 206.06 139.39 214.66 127.67 219.16&#10;  Q 124.46 220.39 119.33 221.51&#10;  Q 114.41 222.59 110.78 222.83&#10;  Q 95.47 223.82 81.57 216.54&#10;  Q 82.30 215.61 83.94 216.50&#10;  Q 85.27 217.22 85.97 217.43&#10;  Q 91.70 219.14 95.36 220.34&#10;  Q 98.61 221.39 100.94 221.15&#10;  Q 102.66 220.97 104.87 221.44&#10;  Q 106.43 221.78 108.74 221.48&#10;  Q 118.96 220.19 128.99 217.11&#10;  Q 131.59 216.31 133.42 214.87&#10;  Q 133.78 214.58 137.50 211.97&#10;  C 141.77 208.97 145.69 203.62 148.61 201.20&#10;  A 1.27 1.25 74.7 0 0 149.06 200.40&#10;  C 149.16 199.82 149.45 199.08 149.81 198.66&#10;  Q 152.02 196.11 153.46 193.46&#10;  Q 156.07 188.68 156.55 187.94&#10;  Q 158.27 185.29 160.00 182.65&#10;  Q 160.45 181.95 163.13 177.11&#10;  Q 164.38 174.85 165.49 173.52&#10;  Q 167.19 171.48 167.92 170.01&#10;  Q 169.63 166.58 173.82 160.27&#10;  C 174.97 158.54 175.90 156.16 176.95 154.71&#10;  Q 178.36 152.77 181.75 146.96&#10;  Q 184.81 141.70 186.52 139.22&#10;  Q 190.50 133.42 193.34 128.35&#10;  Q 193.42 128.22 194.45 126.93&#10;  Q 194.89 126.39 195.09 125.59&#10;  Q 195.21 125.11 195.50 124.70&#10;  C 196.51 123.29 197.74 122.28 198.61 120.25&#10;  Q 199.67 117.79 201.99 114.71&#10;  Q 203.08 113.26 203.61 114.30&#10;  Z" data-c-fill="252525"/>
<path fill="#f31260" d="&#10;  M 80.67 170.56&#10;  Q 83.13 187.28 96.42 194.34&#10;  Q 110.71 201.94 126.14 193.64&#10;  Q 142.09 185.06 141.33 165.23&#10;  Q 141.03 157.47 136.60 150.13&#10;  C 130.50 140.05 119.76 134.58 108.03 135.85&#10;  C 97.31 137.02 88.14 142.35 82.90 152.06&#10;  Q 81.67 151.79 82.80 149.27&#10;  Q 83.22 148.34 85.03 146.03&#10;  Q 86.11 144.65 87.78 143.22&#10;  Q 90.12 141.20 90.74 140.51&#10;  Q 92.11 138.99 94.07 138.51&#10;  Q 95.28 138.21 97.81 136.88&#10;  C 100.00 135.74 102.34 135.28 104.41 134.65&#10;  Q 105.66 134.26 107.18 134.33&#10;  Q 109.32 134.41 114.02 134.00&#10;  Q 115.26 133.89 116.50 135.04&#10;  Q 116.87 135.38 117.36 135.40&#10;  Q 125.11 135.70 130.83 141.67&#10;  Q 132.37 143.28 134.03 144.66&#10;  Q 135.82 146.15 136.63 147.61&#10;  Q 139.61 152.99 141.35 158.49&#10;  Q 142.01 160.60 141.92 162.43&#10;  Q 141.82 164.24 142.25 165.12&#10;  Q 142.82 166.27 142.60 167.61&#10;  Q 142.43 168.69 142.07 174.76&#10;  Q 141.96 176.54 138.97 182.60&#10;  Q 138.33 183.89 137.43 184.86&#10;  C 136.68 185.67 136.19 186.85 135.34 187.82&#10;  Q 122.61 202.28 103.45 198.44&#10;  Q 95.92 196.92 90.19 191.62&#10;  Q 88.20 189.78 87.03 188.07&#10;  Q 84.67 184.61 84.46 184.34&#10;  Q 83.24 182.77 82.75 181.05&#10;  Q 82.25 179.29 81.58 177.65&#10;  Q 80.16 174.16 80.67 170.56&#10;  Z" data-c-fill="252525"/>
<path fill="#f31260" d="&#10;  M 181.99 164.69&#10;  L 193.03 146.92&#10;  A 0.86 0.85 33.2 0 1 194.24 146.67&#10;  L 250.36 185.46&#10;  A 1.60 1.59 -35.0 0 1 249.85 188.31&#10;  Q 245.32 189.48 238.68 190.83&#10;  Q 231.96 192.19 227.32 191.85&#10;  Q 215.18 190.96 206.14 184.45&#10;  Q 202.45 181.80 182.49 167.26&#10;  A 1.93 1.92 -56.1 0 1 181.99 164.69&#10;  Z" data-c-fill="424443"/>
<circle fill="#f31260" cx="110.87" cy="166.72" r="13.96" data-c-fill="da2028"/>
<path fill="#f31260" d="&#10;  M 8.70 265.31&#10;  C 6.27 262.31 4.88 260.17 3.96 256.40&#10;  Q 1.50 246.36 2.50 235.52&#10;  Q 2.61 234.32 3.08 233.35&#10;  Q 4.84 229.70 8.73 231.31&#10;  Q 38.75 243.68 71.44 247.36&#10;  Q 76.81 247.96 81.12 247.96&#10;  Q 84.43 247.96 87.58 248.30&#10;  C 92.25 248.81 97.29 248.39 102.33 248.41&#10;  Q 106.79 248.44 110.68 248.22&#10;  Q 120.63 247.68 135.38 246.43&#10;  Q 139.79 246.06 144.58 245.18&#10;  Q 146.02 244.92 153.74 243.68&#10;  Q 179.05 239.62 204.11 231.99&#10;  C 208.99 230.51 214.95 228.22 218.91 226.86&#10;  Q 223.79 225.19 229.22 222.58&#10;  Q 230.26 222.09 236.08 219.68&#10;  Q 239.54 218.25 242.84 216.60&#10;  Q 257.57 209.27 275.09 199.56&#10;  C 277.76 198.08 280.64 196.71 283.36 197.96&#10;  C 287.78 200.00 287.11 205.90 287.13 211.00&#10;  Q 287.26 243.19 287.33 245.78&#10;  Q 287.62 256.50 280.69 265.68&#10;  Q 277.10 270.44 272.00 272.76&#10;  Q 267.56 274.77 262.79 275.99&#10;  Q 260.05 276.68 253.15 276.68&#10;  Q 180.42 276.72 108.51 276.07&#10;  Q 99.01 275.99 88.51 276.15&#10;  Q 58.69 276.61 47.25 276.57&#10;  Q 35.56 276.53 31.00 276.02&#10;  Q 28.69 275.77 22.79 274.30&#10;  C 16.80 272.81 12.32 269.81 8.70 265.31&#10;  Z&#10;  M 237.10 222.39&#10;  Q 237.30 222.49 237.29 222.59&#10;  A 0.60 0.58 -8.0 0 1 236.90 223.09&#10;  Q 219.68 229.35 211.32 232.21&#10;  Q 201.18 235.69 192.21 238.11&#10;  Q 170.14 244.08 146.86 247.73&#10;  Q 140.79 248.69 131.89 249.46&#10;  Q 123.51 250.18 116.85 250.87&#10;  Q 113.92 251.17 93.46 251.04&#10;  Q 81.18 250.95 73.80 250.20&#10;  Q 63.41 249.14 54.23 247.73&#10;  C 48.99 246.93 44.33 245.01 39.34 244.15&#10;  Q 35.39 243.47 30.64 241.70&#10;  Q 27.01 240.35 22.04 238.91&#10;  Q 19.26 238.11 10.87 235.04&#10;  Q 8.14 234.04 5.90 233.89&#10;  A 0.89 0.89 0.0 0 0 4.95 234.68&#10;  Q 4.26 241.11 4.33 246.22&#10;  C 4.47 256.46 9.57 267.77 19.85 270.95&#10;  Q 27.94 273.45 36.30 273.26&#10;  Q 43.76 273.10 43.83 273.10&#10;  Q 58.71 273.43 60.59 273.63&#10;  Q 65.00 274.11 70.95 273.69&#10;  Q 73.75 273.49 81.35 273.83&#10;  Q 83.96 273.95 87.71 273.67&#10;  Q 90.57 273.46 94.06 273.65&#10;  Q 97.79 273.84 103.55 273.49&#10;  Q 108.30 273.19 111.09 273.41&#10;  Q 114.62 273.69 118.52 273.43&#10;  Q 123.16 273.12 128.70 273.52&#10;  Q 132.30 273.78 135.96 273.25&#10;  Q 141.34 272.47 145.69 273.20&#10;  Q 148.29 273.63 151.99 273.19&#10;  Q 157.33 272.55 161.59 273.16&#10;  C 164.63 273.59 167.67 273.21 170.28 272.90&#10;  Q 172.73 272.60 176.30 273.02&#10;  C 180.61 273.52 183.53 273.42 188.04 272.92&#10;  Q 190.53 272.65 192.95 273.15&#10;  Q 195.55 273.69 197.72 273.60&#10;  Q 205.37 273.26 212.70 273.66&#10;  C 214.48 273.76 216.86 273.67 218.89 273.43&#10;  Q 220.11 273.28 223.50 273.60&#10;  Q 228.22 274.04 232.35 273.83&#10;  Q 237.95 273.54 241.16 273.74&#10;  Q 245.99 274.06 256.90 273.65&#10;  Q 262.68 273.43 266.26 272.13&#10;  Q 272.43 269.88 274.86 267.85&#10;  Q 278.55 264.75 282.12 257.88&#10;  Q 283.54 255.16 283.88 251.12&#10;  Q 284.45 244.53 284.44 244.09&#10;  Q 284.16 215.19 284.28 209.03&#10;  C 284.46 200.65 278.31 200.89 272.75 204.00&#10;  Q 261.20 210.47 253.14 215.16&#10;  Q 246.68 218.91 237.84 222.59&#10;  Q 237.57 222.71 237.57 222.42&#10;  L 237.57 222.09&#10;  Q 237.57 221.85 237.79 221.74&#10;  L 245.51 218.01&#10;  Q 245.65 217.94 245.54 217.83&#10;  L 245.54 217.82&#10;  Q 245.42 217.69 245.36 217.73&#10;  L 236.55 222.00&#10;  A 0.25 0.11 -87.8 0 0 236.46 222.19&#10;  Q 236.39 222.68 236.97 222.39&#10;  Q 237.04 222.36 237.10 222.39&#10;  Z" data-c-fill="656364"/>
<path fill="#f31260" d="&#10;  M 236.97 222.39&#10;  Q 236.39 222.68 236.46 222.19&#10;  A 0.25 0.11 -87.8 0 1 236.55 222.00&#10;  L 245.36 217.73&#10;  Q 245.42 217.69 245.54 217.82&#10;  L 245.54 217.83&#10;  Q 245.65 217.94 245.51 218.01&#10;  L 237.79 221.74&#10;  Q 237.57 221.85 237.57 222.09&#10;  L 237.57 222.42&#10;  Q 237.57 222.71 237.84 222.59&#10;  Q 246.68 218.91 253.14 215.16&#10;  Q 261.20 210.47 272.75 204.00&#10;  C 278.31 200.89 284.46 200.65 284.28 209.03&#10;  Q 284.16 215.19 284.44 244.09&#10;  Q 284.45 244.53 283.88 251.12&#10;  Q 283.54 255.16 282.12 257.88&#10;  Q 278.55 264.75 274.86 267.85&#10;  Q 272.43 269.88 266.26 272.13&#10;  Q 262.68 273.43 256.90 273.65&#10;  Q 245.99 274.06 241.16 273.74&#10;  Q 237.95 273.54 232.35 273.83&#10;  Q 228.22 274.04 223.50 273.60&#10;  Q 220.11 273.28 218.89 273.43&#10;  C 216.86 273.67 214.48 273.76 212.70 273.66&#10;  Q 205.37 273.26 197.72 273.60&#10;  Q 195.55 273.69 192.95 273.15&#10;  Q 190.53 272.65 188.04 272.92&#10;  C 183.53 273.42 180.61 273.52 176.30 273.02&#10;  Q 172.73 272.60 170.28 272.90&#10;  C 167.67 273.21 164.63 273.59 161.59 273.16&#10;  Q 157.33 272.55 151.99 273.19&#10;  Q 148.29 273.63 145.69 273.20&#10;  Q 141.34 272.47 135.96 273.25&#10;  Q 132.30 273.78 128.70 273.52&#10;  Q 123.16 273.12 118.52 273.43&#10;  Q 114.62 273.69 111.09 273.41&#10;  Q 108.30 273.19 103.55 273.49&#10;  Q 97.79 273.84 94.06 273.65&#10;  Q 90.57 273.46 87.71 273.67&#10;  Q 83.96 273.95 81.35 273.83&#10;  Q 73.75 273.49 70.95 273.69&#10;  Q 65.00 274.11 60.59 273.63&#10;  Q 58.71 273.43 43.83 273.10&#10;  Q 43.76 273.10 36.30 273.26&#10;  Q 27.94 273.45 19.85 270.95&#10;  C 9.57 267.77 4.47 256.46 4.33 246.22&#10;  Q 4.26 241.11 4.95 234.68&#10;  A 0.89 0.89 0.0 0 1 5.90 233.89&#10;  Q 8.14 234.04 10.87 235.04&#10;  Q 19.26 238.11 22.04 238.91&#10;  Q 27.01 240.35 30.64 241.70&#10;  Q 35.39 243.47 39.34 244.15&#10;  C 44.33 245.01 48.99 246.93 54.23 247.73&#10;  Q 63.41 249.14 73.80 250.20&#10;  Q 81.18 250.95 93.46 251.04&#10;  Q 113.92 251.17 116.85 250.87&#10;  Q 123.51 250.18 131.89 249.46&#10;  Q 140.79 248.69 146.86 247.73&#10;  Q 170.14 244.08 192.21 238.11&#10;  Q 201.18 235.69 211.32 232.21&#10;  Q 219.68 229.35 236.90 223.09&#10;  A 0.60 0.58 -8.0 0 0 237.29 222.59&#10;  Q 237.30 222.49 237.10 222.39&#10;  Q 237.04 222.36 236.97 222.39&#10;  Z" data-c-fill="333333"/>
<rect fill="#f31260" x="60.36" y="285.96" width="12.34" height="61.90" rx="1.43" data-c-fill="252525"/>
<path fill="#f31260" d="&#10;  M 96.47 287.08&#10;  Q 95.23 288.84 95.23 290.00&#10;  Q 95.13 317.26 95.46 345.77&#10;  Q 95.47 346.14 95.82 346.03&#10;  Q 96.14 345.94 96.69 345.41&#10;  Q 96.77 347.84 95.02 347.84&#10;  Q 90.33 347.84 85.44 347.86&#10;  A 1.30 1.30 0.0 0 1 84.14 346.56&#10;  L 84.14 288.22&#10;  Q 84.14 286.16 86.18 285.90&#10;  Q 92.30 285.12 96.47 287.08&#10;  Z" data-c-fill="252525"/>
<path fill="#f31260" d="&#10;  M 96.47 287.08&#10;  L 96.69 345.41&#10;  Q 96.14 345.94 95.82 346.03&#10;  Q 95.47 346.14 95.46 345.77&#10;  Q 95.13 317.26 95.23 290.00&#10;  Q 95.23 288.84 96.47 287.08&#10;  Z" data-c-fill="424443"/>
<path fill="#f31260" d="&#10;  M 189.54 342.95&#10;  Q 189.40 343.01 187.43 344.94&#10;  Q 185.67 346.65 181.27 347.77&#10;  C 175.92 349.14 168.86 348.41 164.56 345.45&#10;  Q 156.97 340.22 154.96 330.78&#10;  Q 153.20 322.46 155.95 314.72&#10;  Q 160.64 301.51 174.78 300.54&#10;  Q 180.99 300.11 186.57 303.23&#10;  C 187.54 303.78 188.20 304.85 189.11 305.57&#10;  A 0.74 0.74 0.0 0 0 190.31 305.00&#10;  Q 190.32 303.33 191.12 301.74&#10;  Q 191.38 301.21 191.97 301.21&#10;  L 201.15 301.21&#10;  Q 203.00 301.21 203.00 303.06&#10;  L 203.00 346.15&#10;  A 1.77 1.76 -90.0 0 1 201.24 347.92&#10;  L 191.32 347.92&#10;  Q 190.70 347.92 190.65 347.30&#10;  L 190.31 343.18&#10;  Q 190.26 342.60 189.54 342.95&#10;  Z&#10;  M 179.3648 337.2157&#10;  A 12.84 11.70 87.3 0 0 190.4470 323.8389&#10;  A 12.84 11.70 87.3 0 0 178.1552 311.5643&#10;  A 12.84 11.70 87.3 0 0 167.0730 324.9411&#10;  A 12.84 11.70 87.3 0 0 179.3648 337.2157&#10;  Z" data-c-fill="252525"/>
<path fill="#f31260" d="&#10;  M 239.90 312.72&#10;  Q 239.50 312.64 239.43 312.01&#10;  Q 238.98 307.54 239.16 302.92&#10;  A 1.20 1.20 0.0 0 0 237.89 301.68&#10;  Q 232.41 301.98 228.58 305.81&#10;  Q 227.93 306.46 226.69 306.94&#10;  A 1.13 1.13 0.0 0 1 225.16 306.03&#10;  Q 224.86 303.74 225.67 302.21&#10;  L 226.38 304.50&#10;  A 0.94 0.93 -29.8 0 0 227.91 304.91&#10;  C 230.37 302.64 235.74 299.66 239.27 300.81&#10;  A 1.15 1.11 -0.9 0 1 239.96 301.46&#10;  Q 240.56 302.97 240.54 304.25&#10;  C 240.47 307.98 240.68 311.88 239.90 312.72&#10;  Z" data-c-fill="656364"/>
<path fill="#f31260" d="&#10;  M 244.33 328.41&#10;  Q 245.52 330.28 246.05 332.41&#10;  Q 246.83 335.54 247.35 336.49&#10;  Q 249.66 340.72 253.71 343.58&#10;  Q 254.94 344.45 259.43 346.34&#10;  Q 262.87 347.79 265.33 347.62&#10;  Q 265.96 347.58 270.40 347.51&#10;  C 272.39 347.48 274.02 346.66 276.34 345.83&#10;  Q 279.00 344.88 280.53 343.85&#10;  Q 284.40 341.22 286.82 337.20&#10;  C 287.36 336.30 287.34 335.07 287.40 334.24&#10;  Q 287.45 333.63 286.83 333.63&#10;  L 278.17 333.63&#10;  A 2.93 2.92 -71.5 0 0 275.83 334.80&#10;  Q 272.72 338.96 267.27 338.85&#10;  Q 261.22 338.72 257.65 333.36&#10;  C 256.81 332.11 256.17 331.56 256.15 329.96&#10;  Q 256.09 326.73 259.15 326.88&#10;  Q 260.29 326.93 260.39 326.93&#10;  Q 277.66 326.71 284.75 327.04&#10;  Q 286.74 327.13 288.28 327.36&#10;  A 0.86 0.86 0.0 0 0 289.26 326.51&#10;  L 289.26 316.73&#10;  A 0.81 0.80 -61.8 0 0 289.13 316.29&#10;  Q 288.86 315.87 287.27 312.53&#10;  Q 283.02 303.62 273.01 301.83&#10;  Q 271.24 301.52 263.65 301.73&#10;  Q 261.22 301.80 259.75 302.63&#10;  Q 257.99 303.63 255.86 303.64&#10;  Q 255.27 303.65 254.85 304.06&#10;  L 248.60 310.32&#10;  Q 248.22 310.69 248.08 311.20&#10;  Q 247.67 312.71 246.96 313.55&#10;  Q 246.62 313.93 246.59 314.44&#10;  Q 246.35 317.85 244.37 319.74&#10;  Q 246.28 306.38 257.61 302.05&#10;  Q 264.21 299.53 272.60 300.98&#10;  C 285.54 303.21 291.73 314.39 290.65 327.24&#10;  A 1.31 1.30 2.4 0 1 289.35 328.43&#10;  L 258.83 328.43&#10;  A 1.55 1.55 0.0 0 0 257.37 330.51&#10;  Q 260.15 338.10 268.78 337.55&#10;  C 272.15 337.33 274.05 335.08 276.22 332.77&#10;  Q 276.60 332.36 277.16 332.36&#10;  L 288.07 332.36&#10;  A 1.21 1.21 0.0 0 1 289.19 334.01&#10;  Q 284.85 345.01 273.98 347.71&#10;  Q 271.39 348.35 266.29 348.38&#10;  Q 256.92 348.43 250.41 341.84&#10;  Q 244.96 336.34 244.33 328.41&#10;  Z" data-c-fill="656364"/>
<path fill="#f31260" d="&#10;  M 49.98 307.81&#10;  Q 49.89 307.90 49.79 308.01&#10;  Q 49.63 308.20 49.63 308.58&#10;  L 49.53 343.62&#10;  Q 49.53 343.86 49.58 343.90&#10;  Q 49.64 343.94 49.58 344.05&#10;  A 0.19 0.08 -38.2 0 0 49.86 343.97&#10;  Q 49.95 343.83 50.10 343.75&#10;  L 49.96 346.94&#10;  A 0.95 0.95 0.0 0 1 49.01 347.85&#10;  L 38.93 347.85&#10;  A 1.34 1.34 0.0 0 1 37.59 346.45&#10;  Q 37.67 344.41 37.29 343.20&#10;  A 0.42 0.41 -31.7 0 0 36.60 343.04&#10;  Q 31.24 348.32 22.51 348.24&#10;  C 9.17 348.11 2.27 338.23 1.57 325.90&#10;  Q 1.07 317.13 5.20 310.25&#10;  Q 9.12 303.72 15.68 301.78&#10;  Q 27.76 298.19 36.67 305.67&#10;  A 0.57 0.56 20.1 0 0 37.60 305.24&#10;  L 37.60 302.79&#10;  A 1.52 1.52 0.0 0 1 39.12 301.27&#10;  L 48.82 301.27&#10;  A 1.10 1.10 0.0 0 1 49.92 302.36&#10;  L 49.98 307.81&#10;  Z&#10;  M 26.4950 337.3244&#10;  A 12.98 11.76 86.4 0 0 37.4168 323.6316&#10;  A 12.98 11.76 86.4 0 0 24.8650 311.4156&#10;  A 12.98 11.76 86.4 0 0 13.9432 325.1084&#10;  A 12.98 11.76 86.4 0 0 26.4950 337.3244&#10;  Z" data-c-fill="252525"/>
<path fill="#f31260" d="&#10;  M 116.89 324.54&#10;  C 116.95 332.21 120.63 338.07 128.77 337.44&#10;  Q 132.19 337.17 134.62 333.55&#10;  C 135.56 332.16 136.34 331.65 138.03 331.59&#10;  Q 144.06 331.40 147.51 331.38&#10;  A 1.26 1.25 5.5 0 1 148.75 332.87&#10;  C 148.22 335.63 146.95 338.44 145.25 340.47&#10;  Q 138.57 348.47 126.80 348.29&#10;  Q 114.78 348.10 108.52 339.49&#10;  Q 106.37 336.53 105.44 332.96&#10;  C 104.79 330.45 104.08 327.40 104.06 324.63&#10;  C 104.04 321.87 104.70 318.81 105.32 316.29&#10;  Q 106.20 312.70 108.30 309.71&#10;  Q 114.44 301.01 126.45 300.65&#10;  Q 138.22 300.30 145.02 308.20&#10;  C 146.75 310.21 148.06 313.00 148.63 315.75&#10;  A 1.26 1.25 -6.3 0 1 147.41 317.26&#10;  Q 143.96 317.29 137.93 317.18&#10;  C 136.23 317.15 135.45 316.65 134.49 315.27&#10;  Q 132.01 311.69 128.58 311.47&#10;  C 120.43 310.96 116.84 316.87 116.89 324.54&#10;  Z" data-c-fill="252525"/>
<path fill="#f31260" d="&#10;  M 225.48 302.02&#10;  Q 223.86 301.57 220.51 301.92&#10;  Q 219.56 302.02 216.50 301.36&#10;  Q 215.68 301.18 214.74 302.17&#10;  Q 214.68 302.23 214.58 302.18&#10;  Q 214.51 302.13 214.50 302.05&#10;  Q 214.48 301.60 214.23 302.05&#10;  Q 214.04 302.38 214.32 302.73&#10;  Q 214.62 303.11 214.63 303.60&#10;  Q 215.11 325.60 214.08 347.80&#10;  Q 212.84 326.82 213.36 306.25&#10;  Q 213.41 304.40 213.64 302.53&#10;  Q 213.81 301.19 215.16 301.16&#10;  Q 218.53 301.10 223.25 301.17&#10;  Q 224.96 301.19 225.48 302.02&#10;  Z" data-c-fill="656364"/>
<path fill="#f31260" d="&#10;  M 225.48 302.02&#10;  L 225.67 302.21&#10;  Q 224.86 303.74 225.16 306.03&#10;  A 1.13 1.13 0.0 0 0 226.69 306.94&#10;  Q 227.93 306.46 228.58 305.81&#10;  Q 232.41 301.98 237.89 301.68&#10;  A 1.20 1.20 0.0 0 1 239.16 302.92&#10;  Q 238.98 307.54 239.43 312.01&#10;  Q 239.50 312.64 239.90 312.72&#10;  Q 239.96 313.27 239.26 313.33&#10;  Q 236.49 313.56 233.74 314.00&#10;  Q 227.82 314.95 226.74 320.49&#10;  C 226.43 322.06 226.09 324.61 226.08 326.48&#10;  Q 226.04 336.30 226.05 346.53&#10;  Q 226.05 347.81 224.78 347.80&#10;  L 214.08 347.80&#10;  Q 215.11 325.60 214.63 303.60&#10;  Q 214.62 303.11 214.32 302.73&#10;  Q 214.04 302.38 214.23 302.05&#10;  Q 214.48 301.60 214.50 302.05&#10;  Q 214.51 302.13 214.58 302.18&#10;  Q 214.68 302.23 214.74 302.17&#10;  Q 215.68 301.18 216.50 301.36&#10;  Q 219.56 302.02 220.51 301.92&#10;  Q 223.86 301.57 225.48 302.02&#10;  Z" data-c-fill="252525"/>
<path fill="#f31260" d="&#10;  M 244.33 328.41&#10;  L 244.37 319.74&#10;  Q 246.35 317.85 246.59 314.44&#10;  Q 246.62 313.93 246.96 313.55&#10;  Q 247.67 312.71 248.08 311.20&#10;  Q 248.22 310.69 248.60 310.32&#10;  L 254.85 304.06&#10;  Q 255.27 303.65 255.86 303.64&#10;  Q 257.99 303.63 259.75 302.63&#10;  Q 261.22 301.80 263.65 301.73&#10;  Q 271.24 301.52 273.01 301.83&#10;  Q 283.02 303.62 287.27 312.53&#10;  Q 288.86 315.87 289.13 316.29&#10;  A 0.81 0.80 -61.8 0 1 289.26 316.73&#10;  L 289.26 326.51&#10;  A 0.86 0.86 0.0 0 1 288.28 327.36&#10;  Q 286.74 327.13 284.75 327.04&#10;  Q 277.66 326.71 260.39 326.93&#10;  Q 260.29 326.93 259.15 326.88&#10;  Q 256.09 326.73 256.15 329.96&#10;  C 256.17 331.56 256.81 332.11 257.65 333.36&#10;  Q 261.22 338.72 267.27 338.85&#10;  Q 272.72 338.96 275.83 334.80&#10;  A 2.93 2.92 -71.5 0 1 278.17 333.63&#10;  L 286.83 333.63&#10;  Q 287.45 333.63 287.40 334.24&#10;  C 287.34 335.07 287.36 336.30 286.82 337.20&#10;  Q 284.40 341.22 280.53 343.85&#10;  Q 279.00 344.88 276.34 345.83&#10;  C 274.02 346.66 272.39 347.48 270.40 347.51&#10;  Q 265.96 347.58 265.33 347.62&#10;  Q 262.87 347.79 259.43 346.34&#10;  Q 254.94 344.45 253.71 343.58&#10;  Q 249.66 340.72 247.35 336.49&#10;  Q 246.83 335.54 246.05 332.41&#10;  Q 245.52 330.28 244.33 328.41&#10;  Z&#10;  M 277.15 319.58&#10;  Q 277.19 316.10 274.82 313.84&#10;  Q 274.59 312.64 273.08 311.89&#10;  Q 269.68 310.21 269.63 310.19&#10;  Q 267.10 309.15 264.76 310.01&#10;  Q 262.40 310.88 260.48 311.99&#10;  C 258.93 312.87 257.94 315.34 257.10 316.49&#10;  Q 256.17 317.76 256.36 318.65&#10;  Q 256.74 320.43 258.00 320.73&#10;  Q 259.03 320.98 270.01 320.84&#10;  Q 273.16 320.80 276.32 320.89&#10;  A 1.08 1.07 -68.8 0 0 277.15 320.52&#10;  Q 277.80 319.77 277.15 319.58&#10;  Z" data-c-fill="252525"/>
<path fill="#f31260" d="&#10;  M 49.98 307.81&#10;  L 50.10 343.75&#10;  Q 49.95 343.83 49.86 343.97&#10;  A 0.19 0.08 -38.2 0 1 49.58 344.05&#10;  Q 49.64 343.94 49.58 343.90&#10;  Q 49.53 343.86 49.53 343.62&#10;  L 49.63 308.58&#10;  Q 49.63 308.20 49.79 308.01&#10;  Q 49.89 307.90 49.98 307.81&#10;  Z" data-c-fill="424443"/>
<path fill="#f31260" d="&#10;  M 274.82 313.84&#10;  Q 270.95 310.43 265.69 311.07&#10;  Q 261.52 311.58 259.14 315.03&#10;  L 258.41 316.08&#10;  Q 255.98 319.60 260.26 319.60&#10;  L 277.15 319.58&#10;  Q 277.80 319.77 277.15 320.52&#10;  A 1.08 1.07 -68.8 0 1 276.32 320.89&#10;  Q 273.16 320.80 270.01 320.84&#10;  Q 259.03 320.98 258.00 320.73&#10;  Q 256.74 320.43 256.36 318.65&#10;  Q 256.17 317.76 257.10 316.49&#10;  C 257.94 315.34 258.93 312.87 260.48 311.99&#10;  Q 262.40 310.88 264.76 310.01&#10;  Q 267.10 309.15 269.63 310.19&#10;  Q 269.68 310.21 273.08 311.89&#10;  Q 274.59 312.64 274.82 313.84&#10;  Z" data-c-fill="656364"/>
</svg>