<?xml version="1.0" standalone="no"?>
<!DOCTYPE svg PUBLIC "-//W3C//DTD SVG 20010904//EN"
 "http://www.w3.org/TR/2001/REC-SVG-20010904/DTD/svg10.dtd">
<svg version="1.0" xmlns="http://www.w3.org/2000/svg"
 width="32.000000pt" height="32.000000pt" viewBox="0 0 32.000000 32.000000"
 preserveAspectRatio="xMidYMid meet">

<g transform="translate(0.000000,32.000000) scale(0.100000,-0.100000)"
fill="#000000" stroke="none">
<path d="M94 301 c-23 -10 -45 -24 -48 -30 -9 -14 -7 -14 44 4 23 8 68 15 99
16 56 1 56 1 26 14 -41 19 -73 18 -121 -4z"/>
<path d="M134 216 c6 -32 5 -33 -19 -28 -66 12 -92 -94 -30 -118 40 -15 62 0
109 76 46 75 47 96 2 47 l-24 -26 -7 36 c-4 19 -14 38 -22 41 -13 5 -14 0 -9
-28z m14 -88 c-4 -26 -30 -43 -52 -35 -21 8 -21 53 1 66 25 13 55 -5 51 -31z"/>
<path d="M102 129 c2 -6 8 -10 13 -10 5 0 11 4 13 10 2 6 -4 11 -13 11 -9 0
-15 -5 -13 -11z"/>
<path d="M205 140 c-8 -14 23 -39 48 -40 24 0 22 5 -12 30 -20 13 -32 17 -36
10z"/>
<path d="M244 59 c-22 -10 -69 -22 -105 -27 l-64 -8 43 -14 c50 -16 106 -3
149 35 37 31 28 36 -23 14z"/>
</g>
</svg>
